<svg width="22" height="22" viewBox="0 0 22 22" fill="none" xmlns="http://www.w3.org/2000/svg">
<path d="M12.299 1.14801L20.933 16.102C21.0647 16.33 21.134 16.5887 21.134 16.852C21.134 17.1153 21.0647 17.374 20.933 17.602C20.8014 17.83 20.612 18.0194 20.384 18.151C20.156 18.2827 19.8973 18.352 19.634 18.352H2.366C2.1027 18.352 1.84404 18.2827 1.61602 18.151C1.38799 18.0194 1.19864 17.83 1.067 17.602C0.935347 17.374 0.866041 17.1153 0.866043 16.852C0.866045 16.5887 0.935354 16.33 1.067 16.102L9.701 1.14801C10.278 0.14801 11.721 0.14801 12.299 1.14801ZM11 13C10.7348 13 10.4804 13.1054 10.2929 13.2929C10.1054 13.4804 10 13.7348 10 14C10 14.2652 10.1054 14.5196 10.2929 14.7071C10.4804 14.8947 10.7348 15 11 15C11.2652 15 11.5196 14.8947 11.7071 14.7071C11.8946 14.5196 12 14.2652 12 14C12 13.7348 11.8946 13.4804 11.7071 13.2929C11.5196 13.1054 11.2652 13 11 13ZM11 6.00001C10.7551 6.00004 10.5187 6.08997 10.3356 6.25273C10.1526 6.41548 10.0357 6.63976 10.007 6.88301L10 7.00001V11C10.0003 11.2549 10.0979 11.5 10.2729 11.6854C10.4478 11.8707 10.687 11.9822 10.9414 11.9972C11.1958 12.0121 11.4464 11.9293 11.6418 11.7657C11.8373 11.6022 11.9629 11.3701 11.993 11.117L12 11V7.00001C12 6.73479 11.8946 6.48044 11.7071 6.2929C11.5196 6.10537 11.2652 6.00001 11 6.00001Z" fill="#F90101"/>
</svg>
