<svg width="133" height="59" viewBox="0 0 133 59" fill="none" xmlns="http://www.w3.org/2000/svg">
<g clip-path="url(#clip0_1646_6759)">
<path d="M103.096 38.592C100.716 38.592 98.4356 38.6035 96.1553 38.5851C95.4733 38.5796 95.049 38.2681 95.0564 37.4909C95.0637 36.7953 94.9862 36.0998 94.9519 35.4906C93.6947 36.3758 92.5411 37.4754 91.1705 38.1C86.2665 40.3355 79.9376 38.7685 77.0467 33.5844C73.9184 27.9754 73.8606 22.3487 77.056 16.7851C79.2301 12.9991 82.6466 11.3343 86.9893 11.416C90.1083 11.4746 92.617 12.8271 95.0294 15.1172C95.0294 14.1418 95.0368 13.4139 95.0278 12.6868C94.9993 9.91615 94.9462 7.14637 94.9421 4.37579C94.9405 3.47592 95.3419 2.90993 96.3788 2.92612C98.5873 2.96082 100.796 2.93691 103.095 2.93691L103.096 38.592ZM95.0033 25.1871C94.9479 24.6674 94.9144 24.143 94.8328 23.6256C94.4559 21.2167 92.6651 19.0136 90.5627 18.6736C88.1919 18.2911 86.0943 18.8232 84.5483 20.9136C82.8032 23.2732 82.7657 27.1064 84.5866 29.5994C86.0658 31.6235 89.0167 32.3923 91.2725 31.4161C94.0268 30.224 94.7969 27.8883 95.0033 25.1871Z" fill="white"/>
<path d="M47.9597 15.0347V11.9441H56.1561V38.5356C53.6791 38.5356 51.2552 38.5634 48.8351 38.4947C48.5762 38.487 48.1839 37.9465 48.1138 37.6003C47.9696 36.8901 48.002 36.1437 47.9758 35.6679C46.486 36.6009 45.101 37.8223 43.4849 38.4161C37.932 40.4549 32.4768 38.1909 29.7108 32.9251C26.5093 26.8302 27.1736 19.8819 31.4572 14.956C33.5612 12.5363 36.2687 11.4375 39.451 11.4205C42.6587 11.4035 44.6332 12.0475 47.9597 15.0347ZM42.4151 18.625C40.2734 18.5486 38.4892 19.3251 37.3593 21.1434C35.8286 23.6078 35.767 26.2458 37.1226 28.8028C39.1357 32.6004 44.3651 32.9698 46.7219 29.4227C47.4448 28.3355 47.841 26.8912 47.9635 25.5711C48.2902 22.0525 46.2078 18.7121 42.4151 18.625Z" fill="white"/>
<path d="M0.118564 27.4339C2.55555 27.4339 5.01565 27.4216 7.47499 27.4563C7.67768 27.4594 7.97441 27.7431 8.05687 27.9606C8.23798 28.4417 8.26107 28.9823 8.43452 29.4673C9.02641 31.119 10.3289 31.8061 12.1763 31.486C13.6306 31.234 14.5871 30.0279 14.5956 28.3038C14.618 24.0333 14.6033 19.7629 14.6033 15.4926C14.6033 11.9756 14.6033 8.45935 14.6033 4.7843C16.6834 4.7843 18.6919 4.77428 20.6996 4.78661C22.8792 4.80049 22.93 4.34323 22.9238 7.04672C22.9085 13.7515 22.9215 20.457 22.8699 27.1618C22.8522 29.4041 22.6472 31.6603 21.6005 33.6961C19.915 36.9733 17.0927 38.5887 13.4927 38.9256C9.76557 39.2743 6.2827 38.6535 3.32703 36.1652C0.903147 34.124 -0.41785 30.5531 0.118564 27.4339Z" fill="white"/>
<path d="M62.2677 20.7949C62.2677 15.3648 62.2661 9.9354 62.2692 4.5053C62.2692 3.13042 62.458 2.9415 63.8129 2.93764C65.5347 2.93224 67.2565 2.93224 68.9782 2.93764C70.1913 2.9415 70.4741 3.21447 70.4911 4.45595C70.5081 5.65424 70.4826 6.85254 70.4842 8.05083C70.4927 17.412 70.5004 26.7732 70.515 36.1352C70.5189 38.6536 70.4349 38.7369 67.9655 38.6976C66.6568 38.6768 65.3467 38.713 64.0372 38.713C62.5189 38.713 62.2685 38.4663 62.2677 36.9726C62.2661 31.5803 62.2677 26.1873 62.2677 20.7949Z" fill="white"/>
<path d="M117.347 11.7212C117.397 12.611 117.474 13.3852 117.477 14.1594C117.505 21.5736 117.522 28.9877 117.539 36.4027C117.543 38.4383 117.222 38.7391 115.209 38.7075C113.712 38.6836 112.215 38.6743 110.719 38.699C109.702 38.716 109.228 38.3373 109.231 37.2501C109.255 29.1612 109.252 21.0723 109.232 12.9835C109.23 12.0358 109.52 11.6625 110.535 11.6973C112.737 11.7728 114.945 11.7212 117.347 11.7212Z" fill="white"/>
<path d="M108.515 4.42983C108.484 1.70783 110.57 0.0437881 113.478 0.000606294C116.202 -0.0402622 118.266 1.99005 118.249 4.55552C118.232 7.07239 116.104 8.99321 113.352 8.97624C110.451 8.95772 108.504 7.12714 108.515 4.42983Z" fill="white"/>
<path d="M127.247 38.9064C125.265 38.9974 123.697 38.2162 122.864 36.4149C122.146 34.8673 122.223 33.2349 123.399 31.8886C124.883 30.1914 126.826 29.8821 128.923 30.4165C130.646 30.8561 131.627 32.0698 132.058 33.7485C132.661 36.0981 130.692 38.6844 128.145 38.9033C127.848 38.9288 127.547 38.9064 127.247 38.9064Z" fill="#F1AF66"/>
</g>
<path d="M128.203 51.2279C128.163 50.8268 127.993 50.5153 127.691 50.2932C127.389 50.0711 126.98 49.9601 126.463 49.9601C126.112 49.9601 125.815 50.0098 125.573 50.1093C125.331 50.2054 125.146 50.3396 125.016 50.512C124.89 50.6843 124.827 50.8799 124.827 51.0986C124.821 51.2809 124.859 51.44 124.942 51.5759C125.028 51.7118 125.146 51.8294 125.295 51.9289C125.444 52.025 125.616 52.1095 125.812 52.1824C126.007 52.252 126.216 52.3117 126.438 52.3614L127.353 52.5801C127.797 52.6796 128.205 52.8122 128.576 52.9779C128.947 53.1436 129.269 53.3474 129.54 53.5894C129.812 53.8313 130.023 54.1164 130.172 54.4445C130.324 54.7726 130.402 55.1488 130.406 55.573C130.402 56.1961 130.243 56.7364 129.928 57.1938C129.617 57.6479 129.166 58.0008 128.576 58.2527C127.989 58.5013 127.282 58.6256 126.453 58.6256C125.631 58.6256 124.915 58.4997 124.305 58.2478C123.699 57.9959 123.225 57.623 122.884 57.1292C122.545 56.632 122.368 56.0172 122.352 55.2847H124.435C124.458 55.6261 124.556 55.9111 124.728 56.1398C124.904 56.3652 125.137 56.5359 125.429 56.6519C125.724 56.7646 126.057 56.8209 126.428 56.8209C126.793 56.8209 127.109 56.7679 127.378 56.6618C127.65 56.5558 127.86 56.4083 128.009 56.2193C128.158 56.0304 128.233 55.8133 128.233 55.5681C128.233 55.3394 128.165 55.1471 128.029 54.9914C127.897 54.8356 127.701 54.703 127.442 54.5936C127.187 54.4843 126.874 54.3848 126.503 54.2953L125.394 54.0169C124.536 53.8081 123.858 53.4817 123.361 53.0375C122.864 52.5934 122.617 51.9952 122.62 51.2428C122.617 50.6263 122.781 50.0877 123.112 49.627C123.447 49.1663 123.906 48.8067 124.489 48.5482C125.073 48.2897 125.736 48.1604 126.478 48.1604C127.234 48.1604 127.893 48.2897 128.457 48.5482C129.023 48.8067 129.464 49.1663 129.779 49.627C130.094 50.0877 130.256 50.6213 130.266 51.2279H128.203Z" fill="white"/>
<path d="M119.085 53.3905C119.085 54.5008 118.875 55.4454 118.454 56.2243C118.036 57.0032 117.466 57.5981 116.743 58.0091C116.024 58.4168 115.216 58.6206 114.317 58.6206C113.412 58.6206 112.6 58.4151 111.881 58.0042C111.162 57.5932 110.594 56.9982 110.176 56.2193C109.758 55.4405 109.55 54.4975 109.55 53.3905C109.55 52.2802 109.758 51.3356 110.176 50.5567C110.594 49.7778 111.162 49.1845 111.881 48.7769C112.6 48.3659 113.412 48.1604 114.317 48.1604C115.216 48.1604 116.024 48.3659 116.743 48.7769C117.466 49.1845 118.036 49.7778 118.454 50.5567C118.875 51.3356 119.085 52.2802 119.085 53.3905ZM116.903 53.3905C116.903 52.6713 116.795 52.0648 116.579 51.5709C116.367 51.0771 116.067 50.7025 115.68 50.4473C115.292 50.1921 114.838 50.0645 114.317 50.0645C113.797 50.0645 113.343 50.1921 112.955 50.4473C112.567 50.7025 112.266 51.0771 112.05 51.5709C111.838 52.0648 111.732 52.6713 111.732 53.3905C111.732 54.1097 111.838 54.7163 112.05 55.2101C112.266 55.704 112.567 56.0785 112.955 56.3337C113.343 56.5889 113.797 56.7165 114.317 56.7165C114.838 56.7165 115.292 56.5889 115.68 56.3337C116.067 56.0785 116.367 55.704 116.579 55.2101C116.795 54.7163 116.903 54.1097 116.903 53.3905Z" fill="white"/>
<path d="M98.6641 58.4816V48.2998H102.681C103.453 48.2998 104.111 48.4473 104.655 48.7423C105.198 49.0339 105.613 49.44 105.898 49.9603C106.186 50.4774 106.33 51.074 106.33 51.7501C106.33 52.4262 106.184 53.0228 105.893 53.5399C105.601 54.0569 105.179 54.4596 104.625 54.748C104.075 55.0363 103.409 55.1805 102.626 55.1805H100.066V53.4553H102.278C102.693 53.4553 103.034 53.3841 103.303 53.2416C103.574 53.0957 103.777 52.8952 103.909 52.64C104.045 52.3815 104.113 52.0848 104.113 51.7501C104.113 51.412 104.045 51.117 103.909 50.8651C103.777 50.6099 103.574 50.4127 103.303 50.2735C103.031 50.131 102.686 50.0597 102.268 50.0597H100.817V58.4816H98.6641Z" fill="white"/>
<path d="M82.8516 58.4816V48.2998H89.7124V50.0747H85.0043V52.5008H89.3594V54.2757H85.0043V56.7068H89.7322V58.4816H82.8516Z" fill="white"/>
<path d="M71.6641 58.4816V48.2998H75.6811C76.45 48.2998 77.1063 48.4374 77.6499 48.7124C78.1967 48.9842 78.6127 49.3704 78.8977 49.8708C79.1861 50.368 79.3303 50.953 79.3303 51.6258C79.3303 52.3019 79.1844 52.8836 78.8928 53.3708C78.6011 53.8547 78.1785 54.2259 77.625 54.4845C77.0748 54.743 76.4086 54.8722 75.6264 54.8722H72.9368V53.1421H75.2784C75.6894 53.1421 76.0308 53.0858 76.3026 52.9731C76.5743 52.8604 76.7765 52.6914 76.9091 52.466C77.045 52.2406 77.1129 51.9606 77.1129 51.6258C77.1129 51.2877 77.045 51.0027 76.9091 50.7707C76.7765 50.5387 76.5727 50.363 76.2976 50.2437C76.0258 50.1211 75.6828 50.0597 75.2685 50.0597H73.8168V58.4816H71.6641ZM77.1626 53.8481L79.6932 58.4816H77.3168L74.8409 53.8481H77.1626Z" fill="white"/>
<path d="M65.7402 48.2998H67.8929V54.912C67.8929 55.6544 67.7156 56.3041 67.361 56.8609C67.0096 57.4177 66.5175 57.8519 65.8844 58.1634C65.2514 58.4717 64.5139 58.6258 63.6721 58.6258C62.8269 58.6258 62.0878 58.4717 61.4547 58.1634C60.8217 57.8519 60.3295 57.4177 59.9782 56.8609C59.6268 56.3041 59.4512 55.6544 59.4512 54.912V48.2998H61.6039V54.7281C61.6039 55.1159 61.6884 55.4606 61.8574 55.7622C62.0298 56.0638 62.2717 56.3008 62.5833 56.4731C62.8948 56.6454 63.2578 56.7316 63.6721 56.7316C64.0897 56.7316 64.4526 56.6454 64.7608 56.4731C65.0724 56.3008 65.3127 56.0638 65.4817 55.7622C65.6541 55.4606 65.7402 55.1159 65.7402 54.7281V48.2998Z" fill="white"/>
<path d="M47.7118 50.0747V48.2998H56.074V50.0747H52.9568V58.4816H50.829V50.0747H47.7118Z" fill="white"/>
<path d="M44.556 51.8642H42.3784C42.3386 51.5825 42.2574 51.3323 42.1348 51.1135C42.0122 50.8915 41.8547 50.7025 41.6625 50.5468C41.4703 50.391 41.2482 50.2717 40.9963 50.1888C40.7477 50.1059 40.4776 50.0645 40.1859 50.0645C39.6589 50.0645 39.1999 50.1954 38.8088 50.4573C38.4177 50.7158 38.1144 51.0936 37.899 51.5908C37.6836 52.0846 37.5758 52.6845 37.5758 53.3905C37.5758 54.1164 37.6836 54.7262 37.899 55.2201C38.1177 55.7139 38.4227 56.0868 38.8138 56.3387C39.2049 56.5906 39.6573 56.7165 40.171 56.7165C40.4594 56.7165 40.7262 56.6784 40.9714 56.6022C41.22 56.5259 41.4404 56.4149 41.6327 56.2691C41.8249 56.1199 41.984 55.9393 42.1099 55.7272C42.2392 55.515 42.3287 55.2731 42.3784 55.0013L44.556 55.0113C44.4996 55.4786 44.3587 55.9293 44.1334 56.3635C43.9113 56.7944 43.6114 57.1805 43.2335 57.5219C42.859 57.86 42.4115 58.1284 41.8912 58.3273C41.3741 58.5229 40.7891 58.6206 40.1362 58.6206C39.2281 58.6206 38.416 58.4151 37.7001 58.0042C36.9875 57.5932 36.4241 56.9982 36.0098 56.2193C35.5988 55.4405 35.3933 54.4975 35.3933 53.3905C35.3933 52.2802 35.6021 51.3356 36.0197 50.5567C36.4373 49.7778 37.0041 49.1845 37.72 48.7769C38.4359 48.3659 39.2413 48.1604 40.1362 48.1604C40.7262 48.1604 41.273 48.2433 41.7768 48.409C42.2839 48.5747 42.733 48.8167 43.1241 49.1348C43.5152 49.4497 43.8334 49.8358 44.0787 50.2932C44.3273 50.7506 44.4863 51.2743 44.556 51.8642Z" fill="white"/>
<path d="M31.7937 48.2998V58.4816H29.9343L25.5046 52.0732H25.43V58.4816H23.2773V48.2998H25.1665L29.5614 54.7032H29.6509V48.2998H31.7937Z" fill="white"/>
<path d="M17.3535 48.2998H19.5062V54.912C19.5062 55.6544 19.3289 56.3041 18.9743 56.8609C18.6229 57.4177 18.1307 57.8519 17.4977 58.1634C16.8646 58.4717 16.1272 58.6258 15.2853 58.6258C14.4402 58.6258 13.7011 58.4717 13.068 58.1634C12.435 57.8519 11.9428 57.4177 11.5914 56.8609C11.2401 56.3041 11.0645 55.6544 11.0645 54.912V48.2998H13.2172V54.7281C13.2172 55.1159 13.3017 55.4606 13.4707 55.7622C13.6431 56.0638 13.885 56.3008 14.1966 56.4731C14.5081 56.6454 14.871 56.7316 15.2853 56.7316C15.7029 56.7316 16.0659 56.6454 16.3741 56.4731C16.6857 56.3008 16.926 56.0638 17.095 55.7622C17.2673 55.4606 17.3535 55.1159 17.3535 54.7281V48.2998Z" fill="white"/>
<path d="M0 58.4816V48.2998H4.01705C4.7893 48.2998 5.44721 48.4473 5.99077 48.7423C6.53433 49.0339 6.94863 49.44 7.23366 49.9603C7.52202 50.4774 7.66619 51.074 7.66619 51.7501C7.66619 52.4262 7.52036 53.0228 7.22869 53.5399C6.93703 54.0569 6.51444 54.4596 5.96094 54.748C5.41075 55.0363 4.74455 55.1805 3.96236 55.1805H1.40199V53.4553H3.61435C4.02865 53.4553 4.37003 53.3841 4.63849 53.2416C4.91027 53.0957 5.11245 52.8952 5.24503 52.64C5.38092 52.3815 5.44886 52.0848 5.44886 51.7501C5.44886 51.412 5.38092 51.117 5.24503 50.8651C5.11245 50.6099 4.91027 50.4127 4.63849 50.2735C4.36671 50.131 4.02202 50.0597 3.6044 50.0597H2.1527V58.4816H0Z" fill="white"/>
<defs>
<clipPath id="clip0_1646_6759">
<rect width="132.167" height="39.1605" fill="white"/>
</clipPath>
</defs>
</svg>
