<svg width="80" height="80" viewBox="0 0 80 80" fill="none" xmlns="http://www.w3.org/2000/svg">
<g opacity="0.15">
<path d="M26.6667 70C25.1333 70 23.8522 69.4867 22.8233 68.46C21.7944 67.4333 21.28 66.1522 21.28 64.6167V26.6667C21.28 25.1333 21.7944 23.8522 22.8233 22.8233C23.8522 21.7944 25.1333 21.28 26.6667 21.28H64.6167C66.15 21.28 67.4311 21.7944 68.46 22.8233C69.4889 23.8522 70.0022 25.1333 70 26.6667V64.6167C70 66.15 69.4867 67.4311 68.46 68.46C67.4333 69.4889 66.1522 70.0022 64.6167 70H26.6667ZM26.6667 66.6667H43.9733V53.6533H24.6167V64.6167C24.6167 65.2144 24.8089 65.7056 25.1933 66.09C25.5778 66.4744 26.0689 66.6667 26.6667 66.6667ZM47.3067 66.6667H64.6167C65.2144 66.6667 65.7056 66.4744 66.09 66.09C66.4744 65.7056 66.6667 65.2144 66.6667 64.6167V53.6533H47.3067V66.6667ZM10 57.4333V15.39C10 13.8544 10.5144 12.5733 11.5433 11.5467C12.5722 10.52 13.8522 10.0044 15.3833 10H57.4367V13.3333H15.3867C14.7867 13.3333 14.2944 13.5256 13.91 13.91C13.5256 14.2944 13.3333 14.7867 13.3333 15.3867V57.4333H10ZM24.6167 50.32H43.9733V37.2433H24.6167V50.32ZM47.3067 50.32H66.6667V37.2433H47.3067V50.32ZM24.6167 33.91H66.6667V26.6667C66.6667 26.0667 66.4744 25.5756 66.09 25.1933C65.7056 24.8089 65.2144 24.6167 64.6167 24.6167H26.6667C26.0667 24.6167 25.5756 24.8089 25.1933 25.1933C24.8089 25.5778 24.6167 26.0689 24.6167 26.6667V33.91Z" fill="black"/>
</g>
</svg>
