<svg width="21" height="21" viewBox="0 0 21 21" fill="none" xmlns="http://www.w3.org/2000/svg">
<path fill-rule="evenodd" clip-rule="evenodd" d="M7.81851 1.37994C9.13269 -0.45998 11.8672 -0.45998 13.1815 1.37994L13.3908 1.67286C13.622 1.99668 14.0104 2.17007 14.4058 2.12613L15.3384 2.0225C17.4373 1.7893 19.2107 3.56274 18.9775 5.66156L18.8739 6.59415C18.83 6.98964 19.0033 7.37798 19.3271 7.60928L19.6201 7.81851C21.46 9.13269 21.46 11.8672 19.6201 13.1815L19.3271 13.3908C19.0033 13.622 18.83 14.0104 18.8739 14.4058L18.9775 15.3384C19.2107 17.4373 17.4373 19.2107 15.3384 18.9775L14.4058 18.8739C14.0104 18.83 13.622 19.0033 13.3908 19.3271L13.1815 19.6201C11.8672 21.46 9.1328 21.46 7.81851 19.6201L7.60928 19.3271C7.37798 19.0033 6.98964 18.83 6.59414 18.8739L5.66156 18.9775C3.56274 19.2107 1.7893 17.4373 2.0225 15.3384L2.12613 14.4058C2.17007 14.0104 1.99668 13.622 1.67286 13.3908L1.37994 13.1815C-0.45998 11.8672 -0.45998 9.1328 1.37994 7.81851L1.67286 7.60928C1.99668 7.37798 2.17007 6.98964 2.12613 6.59414L2.0225 5.66156C1.7893 3.56274 3.56274 1.7893 5.66156 2.0225L6.59415 2.12613C6.98964 2.17007 7.37798 1.99668 7.60928 1.67286L7.81851 1.37994ZM14.572 7.52644C15.001 7.95541 15.001 8.65091 14.572 9.07985L10.3772 13.2747C9.83843 13.8136 8.96474 13.8136 8.42595 13.2747L6.428 11.2767C5.99904 10.8478 5.99904 10.1523 6.428 9.72331C6.85697 9.29438 7.55246 9.29438 7.98143 9.72331L9.40158 11.1435L13.0186 7.52644C13.4476 7.09748 14.1431 7.09748 14.572 7.52644Z" fill="white"/>
</svg>
