<svg width="23" height="23" viewBox="0 0 23 23" fill="none" xmlns="http://www.w3.org/2000/svg">
<g clip-path="url(#clip0_90_4052)">
<path d="M23 0H0V23H23V0Z" fill="white"/>
<path fill-rule="evenodd" clip-rule="evenodd" d="M9.16053 3.54305C10.3071 1.9378 12.6929 1.9378 13.8395 3.54305L14.0221 3.7986C14.2238 4.08112 14.5627 4.23239 14.9077 4.19406L15.7213 4.10365C17.5525 3.9002 19.0997 5.44744 18.8962 7.27856L18.8059 8.09221C18.7675 8.43725 18.9188 8.77606 19.2013 8.97786L19.4569 9.1604C21.0621 10.307 21.0621 12.6927 19.4569 13.8394L19.2013 14.0219C18.9188 14.2237 18.7675 14.5625 18.8059 14.9075L18.8962 15.7212C19.0997 17.5523 17.5525 19.0996 15.7213 18.8961L14.9077 18.8058C14.5627 18.7674 14.2238 18.9186 14.0221 19.2012L13.8395 19.4567C12.6929 21.062 10.3072 21.062 9.16053 19.4567L8.97798 19.2012C8.77619 18.9186 8.43738 18.7674 8.09232 18.8058L7.27868 18.8961C5.44756 19.0996 3.90032 17.5523 4.10377 15.7212L4.19418 14.9075C4.23252 14.5625 4.08124 14.2237 3.79873 14.0219L3.54317 13.8394C1.93792 12.6927 1.93792 10.3071 3.54317 9.1604L3.79873 8.97786C4.08124 8.77606 4.23252 8.43725 4.19418 8.0922L4.10377 7.27856C3.90032 5.44744 5.44756 3.9002 7.27868 4.10365L8.09233 4.19406C8.43738 4.23239 8.77619 4.08112 8.97798 3.7986L9.16053 3.54305ZM15.0527 8.90558C15.4269 9.27984 15.4269 9.88664 15.0527 10.2609L11.3929 13.9206C10.9228 14.3908 10.1606 14.3908 9.69049 13.9206L7.94737 12.1775C7.57312 11.8033 7.57312 11.1965 7.94737 10.8223C8.32163 10.448 8.92841 10.448 9.30267 10.8223L10.5417 12.0613L13.6974 8.90558C14.0716 8.53133 14.6784 8.53133 15.0527 8.90558Z" fill="#F96F01"/>
</g>
<defs>
<clipPath id="clip0_90_4052">
<rect width="23" height="23" fill="white"/>
</clipPath>
</defs>
</svg>
