<svg width="17" height="19" viewBox="0 0 17 19" fill="none" xmlns="http://www.w3.org/2000/svg">
<path fill-rule="evenodd" clip-rule="evenodd" d="M7.12357 1.1188C7.9753 0.627067 9.02468 0.627067 9.87641 1.1188L15.0701 4.11742C15.9219 4.60916 16.4465 5.51791 16.4465 6.50138V12.4986C16.4465 13.4821 15.9219 14.3908 15.0701 14.8826L9.87641 17.8812C9.02468 18.373 7.9753 18.373 7.12357 17.8812L1.92985 14.8826C1.07814 14.3908 0.553467 13.4821 0.553467 12.4986V6.50138C0.553467 5.51791 1.07814 4.60916 1.92985 4.11742L7.12357 1.1188ZM6.17982 7.17989C6.43611 6.92361 6.85162 6.92361 7.10791 7.17989L8.49994 8.572L9.89207 7.1799C10.1484 6.92362 10.5639 6.92362 10.8202 7.1799C11.0764 7.43618 11.0764 7.8517 10.8202 8.10798L9.42806 9.50002L10.8202 10.8922C11.0765 11.1485 11.0765 11.564 10.8202 11.8203C10.5639 12.0765 10.1484 12.0765 9.89216 11.8203L8.49994 10.4281L7.10782 11.8203C6.85153 12.0765 6.43604 12.0765 6.17975 11.8203C5.92347 11.564 5.92347 11.1485 6.17975 10.8922L7.57192 9.50002L6.17982 8.10798C5.92354 7.8517 5.92354 7.43618 6.17982 7.17989Z" fill="black" fill-opacity="0.3"/>
</svg>
