<svg width="24" height="24" viewBox="0 0 24 24" fill="none" xmlns="http://www.w3.org/2000/svg">
<path d="M12 0.999993C9.82441 0.999993 7.69767 1.64513 5.88873 2.85383C4.07979 4.06252 2.66989 5.78049 1.83733 7.79047C1.00477 9.80046 0.786929 12.0122 1.21137 14.146C1.6358 16.2798 2.68345 18.2398 4.22183 19.7782C5.76021 21.3165 7.72022 22.3642 9.85401 22.7886C11.9878 23.2131 14.1995 22.9952 16.2095 22.1627C18.2195 21.3301 19.9375 19.9202 21.1462 18.1113C22.3549 16.3023 23 14.1756 23 12C23.0066 10.5536 22.7266 9.12022 22.1762 7.78265C21.6257 6.44508 20.8157 5.22982 19.7929 4.20706C18.7702 3.18429 17.5549 2.37429 16.2173 1.82383C14.8798 1.27338 13.4464 0.993373 12 0.999993ZM20.05 7.99999H17.6C17.3091 6.59733 16.8031 5.24807 16.1 3.99999C17.7998 4.89125 19.1802 6.28916 20.05 7.99999ZM21 12C20.994 12.6741 20.9101 13.3452 20.75 14H17.9C17.95 13.35 18 12.7 18 12C18 11.3 17.95 10.65 17.9 9.99999H20.75C20.9101 10.6548 20.994 11.3259 21 12ZM3 12C3.00602 11.3259 3.08991 10.6548 3.25 9.99999H6.1C6.05 10.65 6 11.3 6 12C6 12.7 6.05 13.35 6.1 14H3.25C3.08991 13.3452 3.00602 12.6741 3 12ZM8 12C8 11.3 8.05 10.65 8.1 9.99999H11V14H8.1C8.05 13.35 8 12.7 8 12ZM13 3.34999C13.6216 3.85728 14.1322 4.48699 14.5 5.19999C14.9776 6.08039 15.3309 7.02267 15.55 7.99999H13V3.34999ZM11 3.34999V7.99999H8.45C8.66909 7.02267 9.02244 6.08039 9.5 5.19999C9.86785 4.48699 10.3784 3.85728 11 3.34999ZM11 16V20.65C10.3784 20.1427 9.86785 19.513 9.5 18.8C9.02244 17.9196 8.66909 16.9773 8.45 16H11ZM13 20.65V16H15.55C15.3309 16.9773 14.9776 17.9196 14.5 18.8C14.1322 19.513 13.6216 20.1427 13 20.65ZM13 14V9.99999H15.9C15.95 10.65 16 11.3 16 12C16 12.7 15.95 13.35 15.9 14H13ZM7.9 3.99999C7.19687 5.24807 6.6909 6.59733 6.4 7.99999H3.95C4.81981 6.28916 6.20025 4.89125 7.9 3.99999ZM3.95 16H6.4C6.6909 17.4027 7.19687 18.7519 7.9 20C6.20025 19.1087 4.81981 17.7108 3.95 16ZM16.1 20C16.8031 18.7519 17.3091 17.4027 17.6 16H20.05C19.1802 17.7108 17.7998 19.1087 16.1 20Z" fill="white"/>
</svg>
