<svg width="17" height="18" viewBox="0 0 17 18" fill="none" xmlns="http://www.w3.org/2000/svg">
<path fill-rule="evenodd" clip-rule="evenodd" d="M6.32927 1.29414C7.39313 -0.192448 9.60681 -0.192448 10.6707 1.29414L10.8401 1.53081C11.0273 1.79244 11.3417 1.93253 11.6619 1.89703L12.4168 1.81331C14.1159 1.62489 15.5515 3.05776 15.3627 4.75353L15.2789 5.50703C15.2433 5.82657 15.3836 6.14034 15.6458 6.32722L15.8829 6.49627C17.3724 7.55807 17.3724 9.76749 15.8829 10.8294L15.6458 10.9984C15.3836 11.1853 15.2433 11.4991 15.2789 11.8186L15.3627 12.5721C15.5515 14.2679 14.1159 15.7007 12.4168 15.5123L11.6619 15.4286C11.3417 15.3931 11.0273 15.5332 10.8401 15.7948L10.6707 16.0315C9.60681 17.5181 7.39322 17.5181 6.32927 16.0315L6.15989 15.7948C5.97265 15.5332 5.65828 15.3931 5.33811 15.4286L4.58317 15.5123C2.88412 15.7007 1.44848 14.2679 1.63726 12.5721L1.72115 11.8186C1.75672 11.4991 1.61636 11.1853 1.35422 10.9984L1.11709 10.8294C-0.372365 9.76749 -0.372365 7.55816 1.11709 6.49627L1.35422 6.32722C1.61636 6.14034 1.75672 5.82657 1.72115 5.50702L1.63726 4.75353C1.44848 3.05776 2.88412 1.62489 4.58317 1.81331L5.33812 1.89703C5.65828 1.93253 5.97265 1.79244 6.15989 1.53081L6.32927 1.29414ZM11.7964 6.26028C12.1436 6.60687 12.1436 7.16882 11.7964 7.51538L8.4006 10.9046C7.96444 11.34 7.25717 11.34 6.82101 10.9046L5.20362 9.29037C4.85637 8.9438 4.85637 8.38184 5.20362 8.03528C5.55088 7.68871 6.11389 7.68871 6.46116 8.03528L7.61081 9.18272L10.5389 6.26028C10.8861 5.9137 11.4492 5.9137 11.7964 6.26028Z" fill="#20BA07"/>
</svg>
