<svg width="54" height="54" viewBox="0 0 54 54" fill="none" xmlns="http://www.w3.org/2000/svg">
<g clip-path="url(#clip0_90_4177)">
<path d="M11.6597 40.0075C14.8523 40.4198 17.6377 41.7163 19.6098 43.5025C20.0229 43.8767 19.869 45.0676 19.3746 45.3245C17.0134 46.5511 13.99 47.0976 10.7973 46.6853C7.60469 46.2729 4.81935 44.9764 2.84719 43.1902C2.43414 42.8161 2.58799 41.6252 3.08246 41.3683C5.44363 40.1416 8.467 39.5952 11.6597 40.0075Z" fill="url(#paint0_linear_90_4177)"/>
<path d="M11.6597 40.0075C14.8523 40.4198 17.6377 41.7163 19.6098 43.5025C20.0229 43.8767 19.869 45.0676 19.3746 45.3245C17.0134 46.5511 13.99 47.0976 10.7973 46.6853C7.60469 46.2729 4.81935 44.9764 2.84719 43.1902C2.43414 42.8161 2.58799 41.6252 3.08246 41.3683C5.44363 40.1416 8.467 39.5952 11.6597 40.0075Z" fill="url(#paint1_linear_90_4177)"/>
<path d="M12.0328 35.537C15.4472 37.0172 18.1259 39.3495 19.7446 41.9649C20.0836 42.5127 19.5313 43.7864 18.8999 43.9134C15.8844 44.52 12.351 44.1588 8.93669 42.6786C5.5223 41.1982 2.84359 38.8662 1.22485 36.2505C0.885925 35.7028 1.4381 34.4291 2.06958 34.302C5.08512 33.6957 8.61841 34.0567 12.0328 35.537Z" fill="url(#paint2_linear_90_4177)"/>
<path d="M12.0328 35.537C15.4472 37.0172 18.1259 39.3495 19.7446 41.9649C20.0836 42.5127 19.5313 43.7864 18.8999 43.9134C15.8844 44.52 12.351 44.1588 8.93669 42.6786C5.5223 41.1982 2.84359 38.8662 1.22485 36.2505C0.885925 35.7028 1.4381 34.4291 2.06958 34.302C5.08512 33.6957 8.61841 34.0567 12.0328 35.537Z" fill="url(#paint3_linear_90_4177)"/>
<path d="M18.1809 28.3597C19.5484 31.8207 19.7935 35.364 19.0886 38.3581C18.941 38.9851 17.6498 39.4952 17.1135 39.1385C14.5524 37.435 12.3092 34.6812 10.9417 31.2202C9.57411 27.7593 9.32899 24.2159 10.034 21.2218C10.1816 20.5948 11.4727 20.0847 12.009 20.4414C14.5701 22.1448 16.8133 24.8986 18.1809 28.3597Z" fill="url(#paint4_linear_90_4177)"/>
<path d="M18.1809 28.3597C19.5484 31.8207 19.7935 35.364 19.0886 38.3581C18.941 38.9851 17.6498 39.4952 17.1135 39.1385C14.5524 37.435 12.3092 34.6812 10.9417 31.2202C9.57411 27.7593 9.32899 24.2159 10.034 21.2218C10.1816 20.5948 11.4727 20.0847 12.009 20.4414C14.5701 22.1448 16.8133 24.8986 18.1809 28.3597Z" fill="url(#paint5_linear_90_4177)"/>
<path d="M13.1973 28.4901C16.6786 31.62 18.9424 35.4723 19.8282 39.2391C20.0136 40.0279 18.8461 41.3266 18.042 41.2259C14.2025 40.7445 10.132 38.902 6.65055 35.7721C3.16914 32.6422 0.905479 28.7899 0.0196672 25.0231C-0.165839 24.2343 1.00173 22.9356 1.8058 23.0363C5.6452 23.5177 9.71585 25.3603 13.1973 28.4901Z" fill="url(#paint6_linear_90_4177)"/>
<path d="M1.61462 29.3031C2.79892 31.6089 4.49007 33.8297 6.65071 35.7722C10.1321 38.9022 14.2026 40.7446 18.0421 41.226C18.8462 41.3269 20.0138 40.0282 19.8283 39.2392C18.9425 35.4724 16.6788 31.6201 13.1974 28.4902C11.1474 26.6472 8.89297 25.2512 6.6019 24.3159L1.61462 29.3031Z" fill="url(#paint7_linear_90_4177)"/>
<path d="M42.3394 40.0075C39.1467 40.4198 36.3613 41.7163 34.3892 43.5025C33.9761 43.8767 34.13 45.0676 34.6244 45.3245C36.9857 46.5511 40.0089 47.0976 43.2017 46.6853C46.3943 46.2729 49.1797 44.9764 51.1518 43.1902C51.5648 42.8161 51.411 41.6252 50.9165 41.3683C48.5554 40.1416 45.532 39.5952 42.3394 40.0075Z" fill="url(#paint8_linear_90_4177)"/>
<path d="M42.3394 40.0075C39.1467 40.4198 36.3613 41.7163 34.3892 43.5025C33.9761 43.8767 34.13 45.0676 34.6244 45.3245C36.9857 46.5511 40.0089 47.0976 43.2017 46.6853C46.3943 46.2729 49.1797 44.9764 51.1518 43.1902C51.5648 42.8161 51.411 41.6252 50.9165 41.3683C48.5554 40.1416 45.532 39.5952 42.3394 40.0075Z" fill="url(#paint9_linear_90_4177)"/>
<path d="M41.9661 35.537C38.5517 37.0172 35.8729 39.3495 34.2543 41.9649C33.9153 42.5127 34.4675 43.7864 35.099 43.9134C38.1145 44.52 41.6479 44.1588 45.0622 42.6786C48.4765 41.1982 51.1553 38.8662 52.774 36.2505C53.113 35.7028 52.5608 34.4291 51.9293 34.302C48.9137 33.6957 45.3805 34.0567 41.9661 35.537Z" fill="url(#paint10_linear_90_4177)"/>
<path d="M41.9661 35.537C38.5517 37.0172 35.8729 39.3495 34.2543 41.9649C33.9153 42.5127 34.4675 43.7864 35.099 43.9134C38.1145 44.52 41.6479 44.1588 45.0622 42.6786C48.4765 41.1982 51.1553 38.8662 52.774 36.2505C53.113 35.7028 52.5608 34.4291 51.9293 34.302C48.9137 33.6957 45.3805 34.0567 41.9661 35.537Z" fill="url(#paint11_linear_90_4177)"/>
<path d="M35.8182 28.3597C34.4507 31.8207 34.2056 35.364 34.9105 38.3581C35.0581 38.9851 36.3493 39.4952 36.8856 39.1385C39.4467 37.435 41.6899 34.6812 43.0574 31.2202C44.425 27.7593 44.6701 24.2159 43.9652 21.2218C43.8176 20.5948 42.5264 20.0847 41.9901 20.4414C39.429 22.1448 37.1858 24.8986 35.8182 28.3597Z" fill="url(#paint12_linear_90_4177)"/>
<path d="M35.8182 28.3597C34.4507 31.8207 34.2056 35.364 34.9105 38.3581C35.0581 38.9851 36.3493 39.4952 36.8856 39.1385C39.4467 37.435 41.6899 34.6812 43.0574 31.2202C44.425 27.7593 44.6701 24.2159 43.9652 21.2218C43.8176 20.5948 42.5264 20.0847 41.9901 20.4414C39.429 22.1448 37.1858 24.8986 35.8182 28.3597Z" fill="url(#paint13_linear_90_4177)"/>
<path d="M40.8018 28.4901C37.3204 31.62 35.0567 35.4723 34.1709 39.2391C33.9854 40.0279 35.153 41.3266 35.9571 41.2259C39.7966 40.7445 43.867 38.902 47.3485 35.7721C50.8299 32.6422 53.0935 28.7899 53.9793 25.0231C54.1648 24.2343 52.9973 22.9356 52.1932 23.0363C48.3538 23.5177 44.2832 25.3603 40.8018 28.4901Z" fill="url(#paint14_linear_90_4177)"/>
<path d="M52.3845 29.3031C51.2001 31.6089 49.509 33.8297 47.3484 35.7722C43.8669 38.9022 39.7964 40.7446 35.9569 41.226C35.1529 41.3269 33.9852 40.0282 34.1708 39.2392C35.0566 35.4724 37.3202 31.6201 40.8017 28.4902C42.8516 26.6472 45.1061 25.2512 47.3972 24.3159L52.3845 29.3031Z" fill="url(#paint15_linear_90_4177)"/>
<path d="M26.9991 54.0003C36.2985 54.0003 43.8371 46.4617 43.8371 37.1623C43.8371 27.8629 36.2985 20.3242 26.9991 20.3242C17.6996 20.3242 10.161 27.8629 10.161 37.1623C10.161 46.4617 17.6996 54.0003 26.9991 54.0003Z" fill="url(#paint16_linear_90_4177)"/>
<path d="M26.9991 50.583C34.4114 50.583 40.4203 44.5741 40.4203 37.1618C40.4203 29.7496 34.4114 23.7407 26.9991 23.7407C19.5869 23.7407 13.578 29.7496 13.578 37.1618C13.578 44.5741 19.5869 50.583 26.9991 50.583Z" fill="url(#paint17_linear_90_4177)"/>
<path d="M26.9991 48.6843C33.3626 48.6843 38.5211 43.5257 38.5211 37.1622C38.5211 30.7987 33.3626 25.6401 26.9991 25.6401C20.6356 25.6401 15.4769 30.7987 15.4769 37.1622C15.4769 43.5257 20.6356 48.6843 26.9991 48.6843Z" fill="url(#paint18_linear_90_4177)"/>
<path d="M10.161 37.1617C10.161 46.4613 17.6996 53.9999 26.9991 53.9999C36.2985 53.9999 43.8371 46.4613 43.8371 37.1617C43.8371 37.0964 43.8354 37.0315 43.8347 36.9663H10.1634C10.1627 37.0315 10.161 37.0964 10.161 37.1617Z" fill="url(#paint19_linear_90_4177)"/>
<path d="M31.7215 53.3276C37.0272 51.7802 41.2492 47.6926 42.9828 42.4691L34.7818 34.2682L32.933 34.3589L27.9432 29.3691L21.8618 43.4679L31.7215 53.3276Z" fill="url(#paint20_linear_90_4177)"/>
<path d="M33.9034 33.5032L30.6013 32.7053C30.2941 32.6312 30.0256 32.4449 29.8485 32.1832L27.945 29.3694C27.7146 29.0289 27.362 28.8464 26.999 28.8169C26.636 28.8464 26.2832 29.0289 26.053 29.3694L24.1495 32.1832C23.9724 32.4449 23.704 32.6312 23.3967 32.7053L20.0946 33.5032C19.1988 33.7196 18.8256 34.7887 19.3919 35.5157L21.4797 38.1956C21.6739 38.4449 21.7682 38.7577 21.7438 39.0727L21.4822 42.4599C21.4113 43.3786 22.3127 44.0641 23.1791 43.7501L26.3731 42.5925C26.5748 42.5194 26.7901 42.5005 26.999 42.5329C27.208 42.5006 27.4232 42.5195 27.6249 42.5925L30.8189 43.7501C31.6852 44.064 32.5867 43.3786 32.5158 42.4599L32.2542 39.0727C32.2298 38.7577 32.3241 38.4449 32.5183 38.1956L34.6061 35.5157C35.1724 34.7887 34.7991 33.7196 33.9034 33.5032Z" fill="url(#paint21_linear_90_4177)"/>
<path d="M27.625 42.5925L30.819 43.7501C31.6853 44.064 32.5868 43.3786 32.5159 42.4599L32.2542 39.0727C32.2299 38.7577 32.324 38.4449 32.5182 38.1956L34.6062 35.5157C35.1725 34.7888 34.7992 33.7196 33.9034 33.5032L30.6012 32.7053C30.2941 32.6312 30.0257 32.4449 29.8486 32.1832L27.945 29.3694C27.7147 29.0289 27.362 28.8464 26.999 28.8169V42.5329C27.2081 42.5005 27.4233 42.5194 27.625 42.5925Z" fill="url(#paint22_linear_90_4177)"/>
<path d="M33.9033 33.5029L30.6011 32.705C30.4885 32.6778 30.3811 32.6351 30.2814 32.5796L21.8635 43.4678C22.1938 43.7869 22.692 43.9263 23.179 43.7498L26.3729 42.5923C26.5748 42.5191 26.7901 42.5003 26.9989 42.5327C27.208 42.5004 27.4231 42.5192 27.6249 42.5923L30.8189 43.7498C31.6852 44.0637 32.5867 43.3783 32.5158 42.4596L32.2542 39.0726C32.2298 38.7575 32.3239 38.4447 32.5181 38.1954L34.6061 35.5154C35.1723 34.7884 34.7991 33.7193 33.9033 33.5029Z" fill="url(#paint23_linear_90_4177)"/>
<path d="M20.0946 33.5029L23.3967 32.705C23.5095 32.6778 23.6169 32.6351 23.7166 32.5796L32.1344 43.4678C31.8041 43.7869 31.306 43.9263 30.8189 43.7498L27.6249 42.5923C27.4232 42.5191 27.2079 42.5003 26.999 42.5327C26.79 42.5004 26.5748 42.5192 26.3731 42.5923L23.1791 43.7498C22.3128 44.0637 21.4113 43.3783 21.4822 42.4596L21.7438 39.0726C21.7682 38.7575 21.6739 38.4447 21.4797 38.1954L19.3919 35.5154C18.8256 34.7884 19.1988 33.7193 20.0946 33.5029Z" fill="url(#paint24_linear_90_4177)"/>
<path d="M19.2157 34.2681C19.0585 34.6641 19.0962 35.136 19.3918 35.5154L21.4797 38.1953C21.6739 38.4447 21.7681 38.7574 21.7438 39.0725L21.4821 42.4596C21.4112 43.3783 22.3126 44.0638 23.1789 43.7497L26.3729 42.5923C26.5747 42.5191 26.79 42.5003 26.9989 42.5327C27.208 42.5004 27.423 42.5192 27.6249 42.5923L30.8188 43.7497C31.6852 44.0637 32.5867 43.3783 32.5157 42.4596L32.2541 39.0725C32.2406 38.8977 32.2648 38.7239 32.321 38.561L19.2157 34.2681Z" fill="url(#paint25_linear_90_4177)"/>
<path d="M34.7835 34.2681C34.9406 34.6641 34.903 35.136 34.6074 35.5154L32.5195 38.1953C32.3253 38.4447 32.2311 38.7574 32.2554 39.0725L32.5171 42.4596C32.588 43.3783 31.6865 44.0638 30.8201 43.7497L27.6262 42.5923C27.4245 42.5191 27.2092 42.5003 27.0002 42.5327C26.7912 42.5004 26.5761 42.5192 26.3743 42.5923L23.1804 43.7497C22.314 44.0637 21.4125 43.3783 21.4834 42.4596L21.7451 39.0725C21.7586 38.8977 21.7344 38.7239 21.678 38.561L34.7835 34.2681Z" fill="url(#paint26_linear_90_4177)"/>
<path d="M26.999 20.3237C26.9292 20.3237 26.8599 20.3255 26.7902 20.3263L24.1917 22.9249L43.1615 41.8949C43.6006 40.3932 43.8372 38.8051 43.8372 37.1617C43.8372 27.8623 36.2986 20.3237 26.999 20.3237Z" fill="url(#paint27_linear_90_4177)"/>
<path d="M16.8344 0.353027V9.24715L26.9991 19.4119L37.1638 9.24715V0.353027H16.8344Z" fill="url(#paint28_linear_90_4177)"/>
<path d="M16.8344 0.353027V3.121L26.9651 13.2517C26.9839 13.2705 27.0144 13.2705 27.0331 13.2517L37.1638 3.121V0.353027H16.8344Z" fill="url(#paint29_linear_90_4177)"/>
<path d="M16.8344 0.353027V3.121L26.9651 13.2517C26.9839 13.2705 27.0144 13.2705 27.0331 13.2517L37.1638 3.121V0.353027H16.8344Z" fill="url(#paint30_linear_90_4177)"/>
<path d="M26.9991 14.8535C26.58 14.8535 26.1611 14.6939 25.8421 14.3749L16.8344 5.36719V9.24736L26.9991 19.4121L37.1638 9.24736V5.36719L28.1561 14.3749C27.8372 14.6938 27.4181 14.8535 26.9991 14.8535Z" fill="url(#paint31_linear_90_4177)"/>
<path d="M26.9991 14.8535C26.58 14.8535 26.1611 14.6939 25.8421 14.3749L16.8344 5.36719V9.24736L26.9991 19.4121L37.1638 9.24736V5.36719L28.1561 14.3749C27.8372 14.6938 27.4181 14.8535 26.9991 14.8535Z" fill="url(#paint32_linear_90_4177)"/>
<path d="M26.9991 14.8535C27.4181 14.8535 27.8372 14.6939 28.1561 14.3749L37.1638 5.36719V9.24736L26.9991 19.4121L16.8344 9.24736V5.36719L25.8421 14.3749C26.1611 14.6938 26.5801 14.8535 26.9991 14.8535Z" fill="url(#paint33_linear_90_4177)"/>
<path d="M25.8845 17.1027L17.2345 8.45279C16.5859 7.80415 15.5341 7.80415 14.8855 8.45279C14.2369 9.10143 14.2369 10.1531 14.8855 10.8017L26.9991 22.9156L39.1127 10.8018C39.7613 10.1533 39.7613 9.10153 39.1127 8.4529C38.4641 7.80426 37.4123 7.80426 36.7637 8.4529L28.1139 17.1028C27.4981 17.7184 26.5001 17.7184 25.8845 17.1027Z" fill="url(#paint34_linear_90_4177)"/>
<path d="M14.8853 8.47248L25.7235 19.3107C26.428 20.0152 27.5701 20.0152 28.2746 19.3107L39.1127 8.47248C39.1158 8.4693 39.1184 8.46581 39.1215 8.46264C39.1185 8.45946 39.1158 8.45596 39.1127 8.45279C38.4641 7.80415 37.4123 7.80415 36.7637 8.45279L28.1138 17.1027C27.4982 17.7183 26.5 17.7183 25.8844 17.1027L17.2344 8.45279C16.5858 7.80415 15.534 7.80415 14.8854 8.45279C14.8823 8.45596 14.8797 8.45946 14.8766 8.46264C14.8796 8.46581 14.8822 8.4693 14.8853 8.47248Z" fill="url(#paint35_linear_90_4177)"/>
<path d="M26.9991 22.9157L35.5501 14.3647H30.852L28.1138 17.103C27.4982 17.7186 26.5 17.7186 25.8844 17.103L23.1462 14.3647H18.4481L26.9991 22.9157Z" fill="url(#paint36_linear_90_4177)"/>
<path d="M25.9403 21.8571L26.9991 22.9159L37.8442 12.0708H33.1461L28.1138 17.103C27.5162 17.7007 26.5591 17.7163 25.9403 17.1536V21.8571Z" fill="url(#paint37_linear_90_4177)"/>
<path d="M26.999 24.0883C29.1919 24.0883 30.9694 22.3106 30.9694 20.1179C30.9694 17.9251 29.1919 16.1475 26.999 16.1475C24.8062 16.1475 23.0287 17.9251 23.0287 20.1179C23.0287 22.3106 24.8062 24.0883 26.999 24.0883Z" fill="url(#paint38_linear_90_4177)"/>
<path d="M26.9991 22.3938C28.2562 22.3938 29.2753 21.3748 29.2753 20.1176C29.2753 18.8605 28.2562 17.8413 26.9991 17.8413C25.7419 17.8413 24.7228 18.8605 24.7228 20.1176C24.7228 21.3748 25.7419 22.3938 26.9991 22.3938Z" fill="url(#paint39_linear_90_4177)"/>
<path d="M38.6993 3.9529H15.2989C14.6265 3.9529 14.0814 3.40783 14.0814 2.73547V1.21744C14.0814 0.545082 14.6265 0 15.2989 0H38.6994C39.3717 0 39.9168 0.545082 39.9168 1.21744V2.73558C39.9168 3.40793 39.3717 3.9529 38.6993 3.9529Z" fill="url(#paint40_linear_90_4177)"/>
</g>
<defs>
<linearGradient id="paint0_linear_90_4177" x1="7.69989" y1="38.4812" x2="11.194" y2="43.2989" gradientUnits="userSpaceOnUse">
<stop stop-color="#FEF0AE"/>
<stop offset="1" stop-color="#FBC56D"/>
</linearGradient>
<linearGradient id="paint1_linear_90_4177" x1="7.3817" y1="41.571" x2="12.8876" y2="44.1121" gradientUnits="userSpaceOnUse">
<stop stop-color="#DC8758" stop-opacity="0"/>
<stop offset="0.9957" stop-color="#DC8758" stop-opacity="0.996"/>
<stop offset="1" stop-color="#DC8758"/>
</linearGradient>
<linearGradient id="paint2_linear_90_4177" x1="4.11577" y1="34.3749" x2="9.88635" y2="38.6631" gradientUnits="userSpaceOnUse">
<stop stop-color="#FEF0AE"/>
<stop offset="1" stop-color="#FBC56D"/>
</linearGradient>
<linearGradient id="paint3_linear_90_4177" x1="6.53496" y1="39.1715" x2="10.9114" y2="39.101" gradientUnits="userSpaceOnUse">
<stop stop-color="#DC8758" stop-opacity="0"/>
<stop offset="0.9957" stop-color="#DC8758" stop-opacity="0.996"/>
<stop offset="1" stop-color="#DC8758"/>
</linearGradient>
<linearGradient id="paint4_linear_90_4177" x1="15.709" y1="24.5101" x2="14.3855" y2="30.5984" gradientUnits="userSpaceOnUse">
<stop stop-color="#FEF0AE"/>
<stop offset="1" stop-color="#FBC56D"/>
</linearGradient>
<linearGradient id="paint5_linear_90_4177" x1="9.98991" y1="25.1233" x2="13.3781" y2="28.582" gradientUnits="userSpaceOnUse">
<stop stop-color="#DC8758" stop-opacity="0"/>
<stop offset="0.9957" stop-color="#DC8758" stop-opacity="0.996"/>
<stop offset="1" stop-color="#DC8758"/>
</linearGradient>
<linearGradient id="paint6_linear_90_4177" x1="7.9547" y1="25.9728" x2="10.8665" y2="35.0786" gradientUnits="userSpaceOnUse">
<stop stop-color="#FEF0AE"/>
<stop offset="1" stop-color="#FBC56D"/>
</linearGradient>
<linearGradient id="paint7_linear_90_4177" x1="8.54144" y1="30.9312" x2="12.2826" y2="34.1784" gradientUnits="userSpaceOnUse">
<stop stop-color="#DC8758" stop-opacity="0"/>
<stop offset="0.9957" stop-color="#DC8758" stop-opacity="0.996"/>
<stop offset="1" stop-color="#DC8758"/>
</linearGradient>
<linearGradient id="paint8_linear_90_4177" x1="46.299" y1="38.4812" x2="42.8049" y2="43.2989" gradientUnits="userSpaceOnUse">
<stop stop-color="#FEF0AE"/>
<stop offset="1" stop-color="#FBC56D"/>
</linearGradient>
<linearGradient id="paint9_linear_90_4177" x1="46.6173" y1="41.571" x2="41.1115" y2="44.1121" gradientUnits="userSpaceOnUse">
<stop stop-color="#DC8758" stop-opacity="0"/>
<stop offset="0.9957" stop-color="#DC8758" stop-opacity="0.996"/>
<stop offset="1" stop-color="#DC8758"/>
</linearGradient>
<linearGradient id="paint10_linear_90_4177" x1="49.8831" y1="34.3749" x2="44.1125" y2="38.6631" gradientUnits="userSpaceOnUse">
<stop stop-color="#FEF0AE"/>
<stop offset="1" stop-color="#FBC56D"/>
</linearGradient>
<linearGradient id="paint11_linear_90_4177" x1="47.4639" y1="39.1715" x2="43.0874" y2="39.101" gradientUnits="userSpaceOnUse">
<stop stop-color="#DC8758" stop-opacity="0"/>
<stop offset="0.9957" stop-color="#DC8758" stop-opacity="0.996"/>
<stop offset="1" stop-color="#DC8758"/>
</linearGradient>
<linearGradient id="paint12_linear_90_4177" x1="38.2901" y1="24.5101" x2="39.6136" y2="30.5984" gradientUnits="userSpaceOnUse">
<stop stop-color="#FEF0AE"/>
<stop offset="1" stop-color="#FBC56D"/>
</linearGradient>
<linearGradient id="paint13_linear_90_4177" x1="44.0092" y1="25.1233" x2="40.621" y2="28.582" gradientUnits="userSpaceOnUse">
<stop stop-color="#DC8758" stop-opacity="0"/>
<stop offset="0.9957" stop-color="#DC8758" stop-opacity="0.996"/>
<stop offset="1" stop-color="#DC8758"/>
</linearGradient>
<linearGradient id="paint14_linear_90_4177" x1="46.0444" y1="25.9728" x2="43.1325" y2="35.0786" gradientUnits="userSpaceOnUse">
<stop stop-color="#FEF0AE"/>
<stop offset="1" stop-color="#FBC56D"/>
</linearGradient>
<linearGradient id="paint15_linear_90_4177" x1="45.4576" y1="30.9312" x2="41.7165" y2="34.1784" gradientUnits="userSpaceOnUse">
<stop stop-color="#DC8758" stop-opacity="0"/>
<stop offset="0.9957" stop-color="#DC8758" stop-opacity="0.996"/>
<stop offset="1" stop-color="#DC8758"/>
</linearGradient>
<linearGradient id="paint16_linear_90_4177" x1="16.6177" y1="26.781" x2="34.3759" y2="44.5391" gradientUnits="userSpaceOnUse">
<stop stop-color="#FEF0AE"/>
<stop offset="1" stop-color="#FBC56D"/>
</linearGradient>
<linearGradient id="paint17_linear_90_4177" x1="35.7159" y1="45.8787" x2="18.0279" y2="28.1906" gradientUnits="userSpaceOnUse">
<stop stop-color="#FEF0AE"/>
<stop offset="1" stop-color="#FBC56D"/>
</linearGradient>
<linearGradient id="paint18_linear_90_4177" x1="18.6227" y1="28.7859" x2="32.4105" y2="42.5736" gradientUnits="userSpaceOnUse">
<stop stop-color="#FEF0AE"/>
<stop offset="1" stop-color="#FBC56D"/>
</linearGradient>
<linearGradient id="paint19_linear_90_4177" x1="26.9991" y1="42.0883" x2="26.9991" y2="53.1402" gradientUnits="userSpaceOnUse">
<stop stop-color="#DC8758" stop-opacity="0"/>
<stop offset="0.9957" stop-color="#DC8758" stop-opacity="0.996"/>
<stop offset="1" stop-color="#DC8758"/>
</linearGradient>
<linearGradient id="paint20_linear_90_4177" x1="37.0836" y1="45.9127" x2="23.1777" y2="37.1597" gradientUnits="userSpaceOnUse">
<stop stop-color="#DC8758" stop-opacity="0"/>
<stop offset="0.9957" stop-color="#DC8758" stop-opacity="0.996"/>
<stop offset="1" stop-color="#DC8758"/>
</linearGradient>
<linearGradient id="paint21_linear_90_4177" x1="23.4915" y1="33.9614" x2="29.8165" y2="40.2863" gradientUnits="userSpaceOnUse">
<stop stop-color="#FBC56D"/>
<stop offset="1" stop-color="#C5715A"/>
</linearGradient>
<linearGradient id="paint22_linear_90_4177" x1="30.7889" y1="35.6859" x2="22.0469" y2="39.3" gradientUnits="userSpaceOnUse">
<stop stop-color="#8C3D27" stop-opacity="0"/>
<stop offset="1" stop-color="#8C3D27"/>
</linearGradient>
<linearGradient id="paint23_linear_90_4177" x1="28.5063" y1="38.7879" x2="23.7202" y2="36.7367" gradientUnits="userSpaceOnUse">
<stop stop-color="#8C3D27" stop-opacity="0"/>
<stop offset="1" stop-color="#8C3D27"/>
</linearGradient>
<linearGradient id="paint24_linear_90_4177" x1="25.4916" y1="38.7879" x2="30.2778" y2="36.7367" gradientUnits="userSpaceOnUse">
<stop stop-color="#8C3D27" stop-opacity="0"/>
<stop offset="1" stop-color="#8C3D27"/>
</linearGradient>
<linearGradient id="paint25_linear_90_4177" x1="25.5979" y1="39.0281" x2="28.6747" y2="34.0832" gradientUnits="userSpaceOnUse">
<stop stop-color="#8C3D27" stop-opacity="0"/>
<stop offset="1" stop-color="#8C3D27"/>
</linearGradient>
<linearGradient id="paint26_linear_90_4177" x1="28.1641" y1="38.4035" x2="27.9077" y2="33.5687" gradientUnits="userSpaceOnUse">
<stop stop-color="#8C3D27" stop-opacity="0"/>
<stop offset="1" stop-color="#8C3D27"/>
</linearGradient>
<linearGradient id="paint27_linear_90_4177" x1="35.2964" y1="30.0484" x2="28.8023" y2="18.6837" gradientUnits="userSpaceOnUse">
<stop stop-color="#DC8758" stop-opacity="0"/>
<stop offset="0.9957" stop-color="#DC8758" stop-opacity="0.996"/>
<stop offset="1" stop-color="#DC8758"/>
</linearGradient>
<linearGradient id="paint28_linear_90_4177" x1="27.7521" y1="6.00111" x2="31.9345" y2="12.6717" gradientUnits="userSpaceOnUse">
<stop stop-color="#F9F5F3"/>
<stop offset="1" stop-color="#D8E8F0"/>
</linearGradient>
<linearGradient id="paint29_linear_90_4177" x1="23.5805" y1="-2.18317" x2="36.5688" y2="12.7109" gradientUnits="userSpaceOnUse">
<stop stop-color="#FD4755"/>
<stop offset="1" stop-color="#A72B2B"/>
</linearGradient>
<linearGradient id="paint30_linear_90_4177" x1="26.9991" y1="7.0413" x2="26.9991" y2="3.54358" gradientUnits="userSpaceOnUse">
<stop stop-color="#A72B2B" stop-opacity="0"/>
<stop offset="1" stop-color="#42210B"/>
</linearGradient>
<linearGradient id="paint31_linear_90_4177" x1="20.8214" y1="0.223001" x2="33.8096" y2="15.117" gradientUnits="userSpaceOnUse">
<stop stop-color="#FD4755"/>
<stop offset="1" stop-color="#A72B2B"/>
</linearGradient>
<linearGradient id="paint32_linear_90_4177" x1="31.0221" y1="11.3302" x2="32.8295" y2="13.1376" gradientUnits="userSpaceOnUse">
<stop stop-color="#A72B2B" stop-opacity="0"/>
<stop offset="1" stop-color="#42210B"/>
</linearGradient>
<linearGradient id="paint33_linear_90_4177" x1="22.9761" y1="11.3302" x2="21.1687" y2="13.1376" gradientUnits="userSpaceOnUse">
<stop stop-color="#A72B2B" stop-opacity="0"/>
<stop offset="1" stop-color="#42210B"/>
</linearGradient>
<linearGradient id="paint34_linear_90_4177" x1="36.1776" y1="18.8059" x2="14.4654" y2="-2.90638" gradientUnits="userSpaceOnUse">
<stop stop-color="#FEF0AE"/>
<stop offset="1" stop-color="#FBC56D"/>
</linearGradient>
<linearGradient id="paint35_linear_90_4177" x1="26.9991" y1="8.64697" x2="26.9991" y2="23.4746" gradientUnits="userSpaceOnUse">
<stop stop-color="#FEF0AE"/>
<stop offset="1" stop-color="#FBC56D"/>
</linearGradient>
<linearGradient id="paint36_linear_90_4177" x1="26.9991" y1="17.2588" x2="26.9991" y2="22.1341" gradientUnits="userSpaceOnUse">
<stop stop-color="#DC8758" stop-opacity="0"/>
<stop offset="0.9957" stop-color="#DC8758" stop-opacity="0.996"/>
<stop offset="1" stop-color="#DC8758"/>
</linearGradient>
<linearGradient id="paint37_linear_90_4177" x1="32.0039" y1="14.4985" x2="29.0392" y2="17.5162" gradientUnits="userSpaceOnUse">
<stop stop-color="#DC8758" stop-opacity="0"/>
<stop offset="0.9957" stop-color="#DC8758" stop-opacity="0.996"/>
<stop offset="1" stop-color="#DC8758"/>
</linearGradient>
<linearGradient id="paint38_linear_90_4177" x1="24.7225" y1="17.8414" x2="30.3375" y2="23.4564" gradientUnits="userSpaceOnUse">
<stop stop-color="#FBC56D"/>
<stop offset="1" stop-color="#C5715A"/>
</linearGradient>
<linearGradient id="paint39_linear_90_4177" x1="29.2226" y1="22.3412" x2="23.9627" y2="17.0813" gradientUnits="userSpaceOnUse">
<stop stop-color="#FBC56D"/>
<stop offset="1" stop-color="#C5715A"/>
</linearGradient>
<linearGradient id="paint40_linear_90_4177" x1="26.9992" y1="1.19996" x2="26.9992" y2="3.40634" gradientUnits="userSpaceOnUse">
<stop stop-color="#FEF0AE"/>
<stop offset="1" stop-color="#FBC56D"/>
</linearGradient>
<clipPath id="clip0_90_4177">
<rect width="54" height="54" fill="white"/>
</clipPath>
</defs>
</svg>
