<svg width="21" height="20" viewBox="0 0 21 20" fill="none" xmlns="http://www.w3.org/2000/svg">
<g clip-path="url(#clip0_90_4437)">
<path d="M0.75 1.4325C0.75 0.64125 1.4075 0 2.21875 0H19.2812C20.0925 0 20.75 0.64125 20.75 1.4325V18.5675C20.75 19.3587 20.0925 20 19.2812 20H2.21875C1.4075 20 0.75 19.3587 0.75 18.5675V1.4325ZM6.92875 16.7425V7.71125H3.9275V16.7425H6.92875ZM5.42875 6.4775C6.475 6.4775 7.12625 5.785 7.12625 4.9175C7.1075 4.03125 6.47625 3.3575 5.44875 3.3575C4.42125 3.3575 3.75 4.0325 3.75 4.9175C3.75 5.785 4.40125 6.4775 5.40875 6.4775H5.42875ZM11.5638 16.7425V11.6988C11.5638 11.4288 11.5837 11.1587 11.6637 10.9662C11.88 10.4275 12.3738 9.86875 13.2038 9.86875C14.29 9.86875 14.7238 10.6962 14.7238 11.9113V16.7425H17.725V11.5625C17.725 8.7875 16.245 7.4975 14.27 7.4975C12.6775 7.4975 11.9637 8.3725 11.5638 8.98875V9.02H11.5438L11.5638 8.98875V7.71125H8.56375C8.60125 8.55875 8.56375 16.7425 8.56375 16.7425H11.5638Z" fill="white"/>
</g>
<defs>
<clipPath id="clip0_90_4437">
<rect width="20" height="20" fill="white" transform="translate(0.75)"/>
</clipPath>
</defs>
</svg>
