<svg width="18" height="20" viewBox="0 0 18 20" fill="none" xmlns="http://www.w3.org/2000/svg">
<path fill-rule="evenodd" clip-rule="evenodd" d="M17.1 2.99426C17.597 2.99426 18 3.39721 18 3.89426V15.8711C18 16.3682 17.597 16.7711 17.1 16.7711C16.6029 16.7711 16.2 16.3682 16.2 15.8711V3.89426C16.2 3.39721 16.6029 2.99426 17.1 2.99426Z" fill="white"/>
<path fill-rule="evenodd" clip-rule="evenodd" d="M0.9 2.99426C1.39706 2.99426 1.8 3.39721 1.8 3.89426V15.8711C1.8 16.3682 1.39706 16.7711 0.9 16.7711C0.402944 16.7711 0 16.3682 0 15.8711V3.89426C0 3.39721 0.402944 2.99426 0.9 2.99426Z" fill="white"/>
<path fill-rule="evenodd" clip-rule="evenodd" d="M1.79326 3.3453C1.79322 3.3453 1.79346 3.34456 1.79412 3.34311C1.79363 3.34458 1.7933 3.3453 1.79326 3.3453ZM1.82657 3.29537C1.86044 3.25426 1.92656 3.18846 2.05224 3.10058C2.35054 2.89202 2.84082 2.66776 3.52766 2.46464C4.88964 2.06187 6.82465 1.8 9 1.8C11.1753 1.8 13.1104 2.06187 14.4723 2.46464C15.1592 2.66776 15.6495 2.89202 15.9478 3.10058C16.0734 3.18846 16.1396 3.25426 16.1734 3.29537C16.1396 3.33649 16.0734 3.40229 15.9478 3.49016C15.6495 3.69873 15.1592 3.92299 14.4723 4.1261C13.1104 4.52888 11.1753 4.79075 9 4.79075C6.82465 4.79075 4.88964 4.52888 3.52766 4.1261C2.84082 3.92299 2.35054 3.69873 2.05224 3.49016C1.92656 3.40229 1.86044 3.33649 1.82657 3.29537ZM16.2067 3.3453C16.2067 3.3453 16.2064 3.34458 16.2059 3.34311C16.2065 3.34456 16.2068 3.3453 16.2067 3.3453ZM16.2059 3.24764C16.2064 3.24617 16.2067 3.24544 16.2067 3.24545C16.2068 3.24545 16.2065 3.24619 16.2059 3.24764ZM1.79412 3.24764C1.79346 3.24618 1.79322 3.24545 1.79326 3.24545C1.7933 3.24544 1.79363 3.24617 1.79412 3.24764ZM3.01721 0.738536C4.58685 0.274352 6.70184 0 9 0C11.2982 0 13.4131 0.274352 14.9828 0.738536C15.7618 0.968897 16.4577 1.26079 16.9792 1.62539C17.475 1.97208 18 2.52235 18 3.29537C18 4.06839 17.475 4.61867 16.9792 4.96536C16.4577 5.32995 15.7618 5.62185 14.9828 5.85221C13.4131 6.31639 11.2982 6.59075 9 6.59075C6.70184 6.59075 4.58685 6.31639 3.01721 5.85221C2.23824 5.62185 1.5423 5.32995 1.02083 4.96536C0.524975 4.61867 0 4.06839 0 3.29537C0 2.52235 0.524975 1.97208 1.02083 1.62539C1.5423 1.26079 2.23824 0.968897 3.01721 0.738536Z" fill="white"/>
<path fill-rule="evenodd" clip-rule="evenodd" d="M1.7993 15.8352C1.78045 15.3548 1.38503 14.9711 0.9 14.9711C0.402944 14.9711 0 15.374 0 15.8711C0 16.6415 0.519269 17.1921 1.01521 17.5408C1.53512 17.9063 2.22923 18.1984 3.00691 18.4287C4.57393 18.8929 6.68924 19.1664 9 19.1664C11.3108 19.1664 13.4261 18.8929 14.9931 18.4287C15.7708 18.1984 16.4649 17.9063 16.9848 17.5408C17.4807 17.1921 18 16.6415 18 15.8711C18 15.374 17.5971 14.9711 17.1 14.9711C16.615 14.9711 16.2195 15.3548 16.2007 15.8352C16.1845 15.8635 16.1268 15.9437 15.9496 16.0683C15.6539 16.2761 15.1667 16.5 14.4819 16.7028C13.1239 17.1051 11.1892 17.3664 9 17.3664C6.81076 17.3664 4.87607 17.1051 3.51809 16.7028C2.83327 16.5 2.34613 16.2761 2.05041 16.0683C1.87324 15.9437 1.81554 15.8635 1.7993 15.8352ZM16.2063 15.8237C16.2064 15.8237 16.2061 15.8245 16.2054 15.8261C16.2059 15.8245 16.2063 15.8237 16.2063 15.8237ZM1.79462 15.8261C1.79389 15.8245 1.79362 15.8237 1.79367 15.8237C1.79372 15.8237 1.79409 15.8245 1.79462 15.8261Z" fill="white"/>
<path fill-rule="evenodd" clip-rule="evenodd" d="M1.7993 9.84677C1.78045 9.36635 1.38503 8.98267 0.9 8.98267C0.402944 8.98267 0 9.38561 0 9.88267C0 10.6531 0.519269 11.2037 1.01521 11.5524C1.53512 11.9179 2.22923 12.21 3.00691 12.4403C4.57393 12.9045 6.68924 13.178 9 13.178C11.3108 13.178 13.4261 12.9045 14.9931 12.4403C15.7708 12.21 16.4649 11.9179 16.9848 11.5524C17.4807 11.2037 18 10.6531 18 9.88267C18 9.38561 17.5971 8.98267 17.1 8.98267C16.615 8.98267 16.2195 9.36635 16.2007 9.84677C16.1845 9.87514 16.1268 9.95529 15.9496 10.0798C15.6539 10.2877 15.1667 10.5116 14.4819 10.7144C13.1239 11.1167 11.1892 11.378 9 11.378C6.81076 11.378 4.87607 11.1167 3.51809 10.7144C2.83327 10.5116 2.34613 10.2877 2.05041 10.0798C1.87324 9.95529 1.81554 9.87514 1.7993 9.84677ZM16.2063 9.83526C16.2064 9.83526 16.2061 9.83609 16.2054 9.83774C16.2059 9.83608 16.2063 9.83525 16.2063 9.83526ZM1.79462 9.83774C1.79389 9.83609 1.79362 9.83526 1.79367 9.83526C1.79372 9.83525 1.79409 9.83607 1.79462 9.83774Z" fill="white"/>
</svg>
