<svg width="21" height="21" viewBox="0 0 21 21" fill="none" xmlns="http://www.w3.org/2000/svg">
<path fill-rule="evenodd" clip-rule="evenodd" d="M14.1534 1H6.8466C5.28735 1.0086 3.79541 1.63506 2.69897 2.74158C1.60253 3.8481 0.991419 5.34402 1.00009 6.90025V14.0629C0.991419 15.6191 1.60253 17.115 2.69897 18.2215C3.79541 19.328 5.28735 19.9546 6.8466 19.9631H14.1534C15.7126 19.9546 17.2045 19.328 18.3009 18.2215C19.3975 17.115 20.0085 15.6191 19.9999 14.0629V6.90025C20.0085 5.34402 19.3975 3.8481 18.3009 2.74158C17.2045 1.63506 15.7126 1.0086 14.1534 1Z" stroke="white" stroke-width="2" stroke-linecap="round" stroke-linejoin="round"/>
<path d="M5.07157 6.41815C4.50943 6.41815 4.05371 6.87299 4.05371 7.43404C4.05371 7.99509 4.50943 8.44994 5.07157 8.44994V6.41815ZM10.5001 8.44994C11.0622 8.44994 11.518 7.99509 11.518 7.43404C11.518 6.87299 11.0622 6.41815 10.5001 6.41815V8.44994ZM9.48225 7.43404C9.48225 7.99509 9.93798 8.44994 10.5001 8.44994C11.0622 8.44994 11.518 7.99509 11.518 7.43404H9.48225ZM11.518 5.06362C11.518 4.50257 11.0622 4.04773 10.5001 4.04773C9.93798 4.04773 9.48225 4.50257 9.48225 5.06362H11.518ZM10.5001 6.41815C9.93798 6.41815 9.48225 6.87299 9.48225 7.43404C9.48225 7.99509 9.93798 8.44994 10.5001 8.44994V6.41815ZM15.2501 8.44994C15.8122 8.44994 16.268 7.99509 16.268 7.43404C16.268 6.87299 15.8122 6.41815 15.2501 6.41815V8.44994ZM15.2501 6.41815C14.688 6.41815 14.2323 6.87299 14.2323 7.43404C14.2323 7.99509 14.688 8.44994 15.2501 8.44994V6.41815ZM15.9287 8.44994C16.4908 8.44994 16.9465 7.99509 16.9465 7.43404C16.9465 6.87299 16.4908 6.41815 15.9287 6.41815V8.44994ZM16.083 8.01798C16.4061 7.55896 16.2952 6.92532 15.8353 6.60279C15.3752 6.28026 14.7405 6.39095 14.4172 6.85004L16.083 8.01798ZM9.51428 12.2132C9.0857 12.5764 9.03331 13.2175 9.39716 13.6451C9.76101 14.0728 10.4033 14.1251 10.8318 13.762L9.51428 12.2132ZM6.83532 14.4103C6.38583 14.7471 6.2951 15.384 6.63267 15.8326C6.97026 16.2813 7.60831 16.3719 8.0578 16.0349L6.83532 14.4103ZM10.8486 13.7421C11.2691 13.3697 11.3075 12.7277 10.9344 12.308C10.5615 11.8883 9.91803 11.8499 9.49759 12.2223L10.8486 13.7421ZM9.37233 13.6095C9.71948 14.0508 10.3592 14.1277 10.8015 13.7814C11.2437 13.4349 11.3208 12.7963 10.9738 12.3549L9.37233 13.6095ZM9.39526 9.73227C9.16794 9.21904 8.56686 8.98714 8.05278 9.21403C7.53864 9.44091 7.30617 10.0408 7.53353 10.5539L9.39526 9.73227ZM10.9898 12.3813C10.6543 11.9311 10.0167 11.8376 9.56558 12.1724C9.1146 12.5073 9.02083 13.1436 9.35631 13.5939L10.9898 12.3813ZM13.0722 16.7949C13.5674 17.0603 14.1845 16.8748 14.4505 16.3804C14.7163 15.8862 14.5306 15.2702 14.0353 15.0048L13.0722 16.7949ZM5.07157 8.44994H10.5001V6.41815H5.07157V8.44994ZM11.518 7.43404V5.06362H9.48225V7.43404H11.518ZM10.5001 8.44994H15.2501V6.41815H10.5001V8.44994ZM15.2501 8.44994H15.9287V6.41815H15.2501V8.44994ZM14.4172 6.85004C13.0177 8.83828 11.3702 10.6405 9.51428 12.2132L10.8318 13.762C12.8195 12.0776 14.584 10.1474 16.083 8.01798L14.4172 6.85004ZM8.0578 16.0349C8.75103 15.5153 9.75775 14.708 10.8486 13.7421L9.49759 12.2223C8.44675 13.1527 7.48294 13.9248 6.83532 14.4103L8.0578 16.0349ZM10.9738 12.3549C10.3404 11.5496 9.81014 10.6685 9.39526 9.73227L7.53353 10.5539C8.01681 11.6447 8.63458 12.6712 9.37233 13.6095L10.9738 12.3549ZM9.35631 13.5939C10.3446 14.9201 11.6132 16.0129 13.0722 16.7949L14.0353 15.0048C12.8396 14.3639 11.7998 13.4682 10.9898 12.3813L9.35631 13.5939Z" fill="white"/>
</svg>
