<svg width="44" height="54" viewBox="0 0 44 54" fill="none" xmlns="http://www.w3.org/2000/svg">
<g clip-path="url(#clip0_90_4219)">
<path d="M9.38498 33.8293C11.7944 36.167 13.3057 38.983 13.828 41.6963C13.9375 42.2645 13.0578 43.1554 12.4823 43.0593C9.73448 42.5998 6.86187 41.1625 4.45242 38.825C2.04297 36.4875 0.531741 33.6714 0.00930408 30.9581C-0.100076 30.3897 0.779555 29.4988 1.35508 29.5951C4.10293 30.0545 6.97553 31.4916 9.38498 33.8293Z" fill="url(#paint0_linear_90_4219)"/>
<path d="M9.38498 33.8293C11.7944 36.167 13.3057 38.983 13.828 41.6963C13.9375 42.2645 13.0578 43.1554 12.4823 43.0593C9.73448 42.5998 6.86187 41.1625 4.45242 38.825C2.04297 36.4875 0.531741 33.6714 0.00930408 30.9581C-0.100076 30.3897 0.779555 29.4988 1.35508 29.5951C4.10293 30.0545 6.97553 31.4916 9.38498 33.8293Z" fill="url(#paint1_linear_90_4219)"/>
<path d="M12.6524 28.2932C14.5844 32.0359 15.252 35.9935 14.7816 39.4371C14.6831 40.1582 13.2746 40.8727 12.6269 40.5299C9.53425 38.8936 6.68685 36.0415 4.75498 32.2988C2.8231 28.5561 2.1554 24.5985 2.62581 21.1549C2.7243 20.4338 4.13277 19.7193 4.7805 20.0621C7.87304 21.6984 10.7204 24.5505 12.6524 28.2932Z" fill="url(#paint2_linear_90_4219)"/>
<path d="M2.58899 25.2564C2.84428 27.5704 3.55589 29.9759 4.7549 32.2987C6.68689 36.0415 9.53417 38.8935 12.6268 40.5298C13.2745 40.8725 14.6829 40.158 14.7815 39.437C15.252 35.9935 14.5843 32.0358 12.6523 28.2931C11.5148 26.0892 10.0595 24.1946 8.42382 22.6748L2.58899 25.2564Z" fill="url(#paint3_linear_90_4219)"/>
<path d="M34.5951 33.8293C32.1856 36.167 30.6745 38.9829 30.152 41.6963C30.0426 42.2645 30.9222 43.1554 31.4978 43.0592C34.2456 42.5997 37.1181 41.1625 39.5277 38.8249C41.9371 36.4874 43.4483 33.6714 43.9707 30.958C44.0801 30.3897 43.2005 29.4988 42.625 29.5951C39.8772 30.0545 37.0046 31.4916 34.5951 33.8293Z" fill="url(#paint4_linear_90_4219)"/>
<path d="M34.5951 33.8293C32.1856 36.167 30.6745 38.9829 30.152 41.6963C30.0426 42.2645 30.9222 43.1554 31.4978 43.0592C34.2456 42.5997 37.1181 41.1625 39.5277 38.8249C41.9371 36.4874 43.4483 33.6714 43.9707 30.958C44.0801 30.3897 43.2005 29.4988 42.625 29.5951C39.8772 30.0545 37.0046 31.4916 34.5951 33.8293Z" fill="url(#paint5_linear_90_4219)"/>
<path d="M31.3277 28.2932C29.3958 32.0359 28.7282 35.9935 29.1986 39.4371C29.297 40.1582 30.7056 40.8727 31.3533 40.5299C34.446 38.8936 37.2933 36.0415 39.2252 32.2988C41.1571 28.5561 41.8248 24.5985 41.3544 21.1549C41.2559 20.4338 39.8474 19.7193 39.1996 20.0621C36.1072 21.6984 33.2598 24.5505 31.3277 28.2932Z" fill="url(#paint6_linear_90_4219)"/>
<path d="M41.3909 25.2564C41.1356 27.5705 40.4241 29.9759 39.2251 32.2989C37.2931 36.0416 34.4458 38.8936 31.3532 40.5299C30.7055 40.8725 29.297 40.1581 29.1984 39.437C28.7281 35.9936 29.3956 32.0359 31.3276 28.2932C32.4652 26.0893 33.9205 24.1947 35.5561 22.6748L41.3909 25.2564Z" fill="url(#paint7_linear_90_4219)"/>
<path d="M21.99 54.0003C31.3715 54.0003 38.9767 46.4617 38.9767 37.1623C38.9767 27.8629 31.3715 20.3242 21.99 20.3242C12.6087 20.3242 5.00354 27.8629 5.00354 37.1623C5.00354 46.4617 12.6087 54.0003 21.99 54.0003Z" fill="url(#paint8_linear_90_4219)"/>
<path d="M21.9902 50.5835C29.4678 50.5835 35.5296 44.5746 35.5296 37.1624C35.5296 29.7501 29.4678 23.7412 21.9902 23.7412C14.5125 23.7412 8.45068 29.7501 8.45068 37.1624C8.45068 44.5746 14.5125 50.5835 21.9902 50.5835Z" fill="url(#paint9_linear_90_4219)"/>
<path d="M21.9901 48.6844C28.4097 48.6844 33.6139 43.5258 33.6139 37.1623C33.6139 30.7988 28.4097 25.6401 21.9901 25.6401C15.5705 25.6401 10.3665 30.7988 10.3665 37.1623C10.3665 43.5258 15.5705 48.6844 21.9901 48.6844Z" fill="url(#paint10_linear_90_4219)"/>
<path d="M5.00354 37.1622C5.00354 46.4617 12.6086 54.0003 21.99 54.0003C31.3716 54.0003 38.9767 46.4617 38.9767 37.1622C38.9767 37.0969 38.9749 37.032 38.9741 36.9668H5.006C5.00525 37.032 5.00354 37.0969 5.00354 37.1622Z" fill="url(#paint11_linear_90_4219)"/>
<path d="M26.7544 53.3276C32.1067 51.7802 36.3659 47.6926 38.1148 42.4691L29.8417 34.2682L27.9765 34.3589L22.9427 29.3691L16.8077 43.4679L26.7544 53.3276Z" fill="url(#paint12_linear_90_4219)"/>
<path d="M28.9554 33.5032L25.6241 32.7053C25.3142 32.6311 25.0435 32.4449 24.8648 32.1831L22.9444 29.3693C22.7121 29.0289 22.3562 28.8464 21.9901 28.8169C21.624 28.8464 21.2681 29.0289 21.0358 29.3693L19.1154 32.1831C18.9369 32.4449 18.6661 32.6311 18.3561 32.7053L15.0248 33.5032C14.1212 33.7196 13.7446 34.7887 14.3159 35.5157L16.4222 38.1956C16.6181 38.4449 16.7131 38.7577 16.6886 39.0727L16.4246 42.4599C16.3531 43.3786 17.2624 44.0641 18.1365 43.75L21.3586 42.5925C21.5623 42.5194 21.7793 42.5005 21.9901 42.5329C22.201 42.5006 22.4181 42.5195 22.6216 42.5925L25.8437 43.75C26.7177 44.064 27.6271 43.3786 27.5556 42.4599L27.2916 39.0727C27.2671 38.7577 27.3621 38.4449 27.558 38.1956L29.6643 35.5157C30.2356 34.7887 29.8591 33.7196 28.9554 33.5032Z" fill="url(#paint13_linear_90_4219)"/>
<path d="M22.6215 42.5925L25.8436 43.7501C26.7176 44.064 27.627 43.3786 27.5554 42.4599L27.2915 39.0728C27.2668 38.7577 27.362 38.4449 27.5579 38.1956L29.6642 35.5157C30.2355 34.7888 29.8589 33.7196 28.9552 33.5032L25.624 32.7054C25.3141 32.6312 25.0433 32.4449 24.8646 32.1832L22.9443 29.3694C22.7119 29.0291 22.3561 28.8464 21.99 28.8169V42.5329C22.2008 42.5005 22.4179 42.5194 22.6215 42.5925Z" fill="url(#paint14_linear_90_4219)"/>
<path d="M28.9552 33.5029L25.624 32.7051C25.5102 32.6779 25.4019 32.6353 25.3014 32.5796L16.8093 43.4679C17.1425 43.787 17.645 43.9264 18.1364 43.7499L21.3585 42.5924C21.5621 42.5192 21.7792 42.5004 21.99 42.5328C22.2009 42.5005 22.4179 42.5193 22.6215 42.5924L25.8436 43.7499C26.7176 44.0638 27.627 43.3784 27.5555 42.4597L27.2915 39.0727C27.267 38.7575 27.362 38.4448 27.5579 38.1954L29.6642 35.5155C30.2354 34.7884 29.8589 33.7193 28.9552 33.5029Z" fill="url(#paint15_linear_90_4219)"/>
<path d="M15.0248 33.5029L18.3561 32.7051C18.4699 32.6779 18.5782 32.6353 18.6787 32.5796L27.1708 43.4679C26.8376 43.787 26.3351 43.9264 25.8437 43.7499L22.6216 42.5924C22.4181 42.5192 22.2009 42.5004 21.9901 42.5328C21.7792 42.5005 21.5623 42.5193 21.3586 42.5924L18.1365 43.7499C17.2625 44.0638 16.3531 43.3784 16.4246 42.4597L16.6886 39.0727C16.7131 38.7575 16.6181 38.4448 16.4222 38.1954L14.3159 35.5155C13.7446 34.7884 14.1212 33.7193 15.0248 33.5029Z" fill="url(#paint16_linear_90_4219)"/>
<path d="M14.1381 34.2681C13.9797 34.664 14.0178 35.136 14.3159 35.5154L16.4223 38.1952C16.6182 38.4446 16.7132 38.7573 16.6886 39.0725L16.4247 42.4596C16.3531 43.3783 17.2624 44.0638 18.1365 43.7497L21.3586 42.5923C21.5622 42.5191 21.7794 42.5002 21.9901 42.5326C22.2009 42.5004 22.418 42.5192 22.6216 42.5923L25.8437 43.7497C26.7176 44.0637 27.6271 43.3783 27.5555 42.4596L27.2916 39.0725C27.2779 38.8976 27.3024 38.7239 27.3592 38.561L14.1381 34.2681Z" fill="url(#paint17_linear_90_4219)"/>
<path d="M29.8433 34.2681C30.0017 34.664 29.9638 35.136 29.6657 35.5154L27.5593 38.1952C27.3634 38.4446 27.2684 38.7573 27.2929 39.0725L27.5568 42.4596C27.6285 43.3783 26.719 44.0638 25.845 43.7497L22.6229 42.5923C22.4193 42.5191 22.2022 42.5002 21.9914 42.5326C21.7806 42.5004 21.5635 42.5192 21.3599 42.5923L18.1378 43.7497C17.2638 44.0637 16.3544 43.3783 16.426 42.4596L16.69 39.0725C16.7036 38.8976 16.6792 38.7239 16.6223 38.561L29.8433 34.2681Z" fill="url(#paint18_linear_90_4219)"/>
<path d="M21.9902 20.3237C21.9197 20.3237 21.8497 20.3255 21.7794 20.3263L19.158 22.9249L38.2952 41.8949C38.7381 40.3932 38.9767 38.8051 38.9767 37.1617C38.9767 27.8623 31.3716 20.3237 21.9902 20.3237Z" fill="url(#paint19_linear_90_4219)"/>
<path d="M11.736 0.353027V9.24715L21.9904 19.4119L32.2447 9.24715V0.353027H11.736Z" fill="url(#paint20_linear_90_4219)"/>
<path d="M11.736 0.353027V3.121L21.956 13.2517C21.975 13.2705 22.0057 13.2705 22.0246 13.2517L32.2447 3.121V0.353027H11.736Z" fill="url(#paint21_linear_90_4219)"/>
<path d="M21.9904 14.8534C21.5676 14.8534 21.1448 14.6939 20.8231 14.3749L11.736 5.36719V9.24736L21.9904 19.4121L32.2447 9.24736V5.36719L23.1575 14.3749C22.8358 14.6938 22.4131 14.8534 21.9904 14.8534Z" fill="url(#paint22_linear_90_4219)"/>
<path d="M11.736 0.353027V3.121L21.956 13.2517C21.975 13.2705 22.0057 13.2705 22.0246 13.2517L32.2447 3.121V0.353027H11.736Z" fill="url(#paint23_linear_90_4219)"/>
<path d="M21.9904 14.8534C21.5676 14.8534 21.1448 14.6939 20.8231 14.3749L11.736 5.36719V9.24736L21.9904 19.4121L32.2447 9.24736V5.36719L23.1575 14.3749C22.8358 14.6938 22.4131 14.8534 21.9904 14.8534Z" fill="url(#paint24_linear_90_4219)"/>
<path d="M21.9904 14.8534C22.4131 14.8534 22.8358 14.6939 23.1575 14.3749L32.2447 5.36719V9.24736L21.9904 19.4121L11.736 9.24736V5.36719L20.8231 14.3749C21.1448 14.6938 21.5677 14.8534 21.9904 14.8534Z" fill="url(#paint25_linear_90_4219)"/>
<path d="M20.8657 17.1027L12.1396 8.45278C11.4851 7.80415 10.4242 7.80415 9.76982 8.45278C9.11546 9.10142 9.11546 10.1532 9.76982 10.8018L21.9902 22.9156L34.2107 10.8019C34.865 10.1533 34.865 9.10152 34.2107 8.45289C33.5564 7.80425 32.4953 7.80425 31.841 8.45289L23.1147 17.1028C22.4936 17.7184 21.4867 17.7184 20.8657 17.1027Z" fill="url(#paint26_linear_90_4219)"/>
<path d="M9.76973 8.47248L20.7035 19.3107C21.4142 20.0151 22.5664 20.0151 23.2771 19.3107L34.2108 8.47248C34.2139 8.4693 34.2165 8.46581 34.2197 8.46264C34.2167 8.45946 34.2139 8.45596 34.2108 8.45279C33.5563 7.80415 32.4954 7.80415 31.8411 8.45279L23.1148 17.1027C22.4938 17.7183 21.4868 17.7183 20.8658 17.1027L12.1395 8.45279C11.4852 7.80415 10.4242 7.80415 9.76983 8.45279C9.76663 8.45596 9.76407 8.45946 9.76086 8.46264C9.76397 8.46581 9.76652 8.4693 9.76973 8.47248Z" fill="url(#paint27_linear_90_4219)"/>
<path d="M21.9903 22.9156L30.6167 14.3647H25.8772L23.1147 17.103C22.4937 17.7186 21.4868 17.7186 20.8658 17.103L18.1033 14.3647H13.3638L21.9903 22.9156Z" fill="url(#paint28_linear_90_4219)"/>
<path d="M20.9221 21.8571L21.9903 22.9159L32.931 12.0708H28.1914L23.1148 17.1031C22.5119 17.7008 21.5463 17.7164 20.9221 17.1536V21.8571Z" fill="url(#paint29_linear_90_4219)"/>
<path d="M21.9902 24.0883C24.2023 24.0883 25.9956 22.3106 25.9956 20.1179C25.9956 17.9251 24.2023 16.1475 21.9902 16.1475C19.7781 16.1475 17.9849 17.9251 17.9849 20.1179C17.9849 22.3106 19.7781 24.0883 21.9902 24.0883Z" fill="url(#paint30_linear_90_4219)"/>
<path d="M21.9902 22.3938C23.2584 22.3938 24.2865 21.3747 24.2865 20.1176C24.2865 18.8605 23.2584 17.8413 21.9902 17.8413C20.722 17.8413 19.6938 18.8605 19.6938 20.1176C19.6938 21.3747 20.722 22.3938 21.9902 22.3938Z" fill="url(#paint31_linear_90_4219)"/>
<path d="M33.7936 3.9529H10.1868C9.50851 3.9529 8.95862 3.40783 8.95862 2.73547V1.21744C8.95862 0.545082 9.50851 0 10.1868 0H33.7937C34.4718 0 35.0217 0.545082 35.0217 1.21744V2.73558C35.0217 3.40793 34.4718 3.9529 33.7936 3.9529Z" fill="url(#paint32_linear_90_4219)"/>
</g>
<defs>
<linearGradient id="paint0_linear_90_4219" x1="3.03772" y1="30.3411" x2="6.4862" y2="35.8205" gradientUnits="userSpaceOnUse">
<stop stop-color="#FBC56D"/>
<stop offset="1" stop-color="#C5715A"/>
</linearGradient>
<linearGradient id="paint1_linear_90_4219" x1="3.52899" y1="35.1421" x2="7.24738" y2="36.511" gradientUnits="userSpaceOnUse">
<stop stop-color="#8C3D27" stop-opacity="0"/>
<stop offset="1" stop-color="#8C3D27"/>
</linearGradient>
<linearGradient id="paint2_linear_90_4219" x1="9.01112" y1="24.528" x2="8.53007" y2="33.1023" gradientUnits="userSpaceOnUse">
<stop stop-color="#FBC56D"/>
<stop offset="1" stop-color="#C5715A"/>
</linearGradient>
<linearGradient id="paint3_linear_90_4219" x1="7.89929" y1="28.8756" x2="9.9831" y2="32.8171" gradientUnits="userSpaceOnUse">
<stop stop-color="#8C3D27" stop-opacity="0"/>
<stop offset="1" stop-color="#8C3D27"/>
</linearGradient>
<linearGradient id="paint4_linear_90_4219" x1="40.9338" y1="30.356" x2="37.4853" y2="35.8354" gradientUnits="userSpaceOnUse">
<stop stop-color="#FBC56D"/>
<stop offset="1" stop-color="#C5715A"/>
</linearGradient>
<linearGradient id="paint5_linear_90_4219" x1="40.4424" y1="35.157" x2="36.7241" y2="36.5257" gradientUnits="userSpaceOnUse">
<stop stop-color="#8C3D27" stop-opacity="0"/>
<stop offset="1" stop-color="#8C3D27"/>
</linearGradient>
<linearGradient id="paint6_linear_90_4219" x1="34.9606" y1="24.5429" x2="35.4415" y2="33.1172" gradientUnits="userSpaceOnUse">
<stop stop-color="#FBC56D"/>
<stop offset="1" stop-color="#C5715A"/>
</linearGradient>
<linearGradient id="paint7_linear_90_4219" x1="36.0721" y1="28.8904" x2="33.9883" y2="32.8319" gradientUnits="userSpaceOnUse">
<stop stop-color="#8C3D27" stop-opacity="0"/>
<stop offset="1" stop-color="#8C3D27"/>
</linearGradient>
<linearGradient id="paint8_linear_90_4219" x1="11.5172" y1="26.781" x2="29.2746" y2="44.695" gradientUnits="userSpaceOnUse">
<stop stop-color="#FBC56D"/>
<stop offset="1" stop-color="#C5715A"/>
</linearGradient>
<linearGradient id="paint9_linear_90_4219" x1="30.7839" y1="45.8792" x2="13.0965" y2="28.0358" gradientUnits="userSpaceOnUse">
<stop stop-color="#FBC56D"/>
<stop offset="1" stop-color="#C5715A"/>
</linearGradient>
<linearGradient id="paint10_linear_90_4219" x1="13.54" y1="28.7861" x2="27.3272" y2="42.6948" gradientUnits="userSpaceOnUse">
<stop stop-color="#FBC56D"/>
<stop offset="1" stop-color="#C5715A"/>
</linearGradient>
<linearGradient id="paint11_linear_90_4219" x1="21.99" y1="42.0887" x2="21.99" y2="53.1407" gradientUnits="userSpaceOnUse">
<stop stop-color="#8C3D27" stop-opacity="0"/>
<stop offset="1" stop-color="#8C3D27"/>
</linearGradient>
<linearGradient id="paint12_linear_90_4219" x1="32.1637" y1="45.9127" x2="18.2053" y2="37.0492" gradientUnits="userSpaceOnUse">
<stop stop-color="#8C3D27" stop-opacity="0"/>
<stop offset="1" stop-color="#8C3D27"/>
</linearGradient>
<linearGradient id="paint13_linear_90_4219" x1="18.4518" y1="33.9614" x2="24.7765" y2="40.3418" gradientUnits="userSpaceOnUse">
<stop stop-color="#FBC56D"/>
<stop offset="1" stop-color="#C5715A"/>
</linearGradient>
<linearGradient id="paint14_linear_90_4219" x1="25.8133" y1="35.6859" x2="17.017" y2="39.3545" gradientUnits="userSpaceOnUse">
<stop stop-color="#8C3D27" stop-opacity="0"/>
<stop offset="1" stop-color="#8C3D27"/>
</linearGradient>
<linearGradient id="paint15_linear_90_4219" x1="23.5106" y1="38.788" x2="18.6956" y2="36.7061" gradientUnits="userSpaceOnUse">
<stop stop-color="#8C3D27" stop-opacity="0"/>
<stop offset="1" stop-color="#8C3D27"/>
</linearGradient>
<linearGradient id="paint16_linear_90_4219" x1="20.4695" y1="38.788" x2="25.2845" y2="36.7061" gradientUnits="userSpaceOnUse">
<stop stop-color="#8C3D27" stop-opacity="0"/>
<stop offset="1" stop-color="#8C3D27"/>
</linearGradient>
<linearGradient id="paint17_linear_90_4219" x1="20.5768" y1="39.028" x2="23.6415" y2="34.0591" gradientUnits="userSpaceOnUse">
<stop stop-color="#8C3D27" stop-opacity="0"/>
<stop offset="1" stop-color="#8C3D27"/>
</linearGradient>
<linearGradient id="paint18_linear_90_4219" x1="23.1654" y1="38.4035" x2="22.9113" y2="33.5683" gradientUnits="userSpaceOnUse">
<stop stop-color="#8C3D27" stop-opacity="0"/>
<stop offset="1" stop-color="#8C3D27"/>
</linearGradient>
<linearGradient id="paint19_linear_90_4219" x1="30.3608" y1="30.0484" x2="23.8957" y2="18.6348" gradientUnits="userSpaceOnUse">
<stop stop-color="#8C3D27" stop-opacity="0"/>
<stop offset="1" stop-color="#8C3D27"/>
</linearGradient>
<linearGradient id="paint20_linear_90_4219" x1="22.75" y1="6.00111" x2="26.9162" y2="12.7047" gradientUnits="userSpaceOnUse">
<stop stop-color="#F9F5F3"/>
<stop offset="1" stop-color="#D8E8F0"/>
</linearGradient>
<linearGradient id="paint21_linear_90_4219" x1="18.5415" y1="-2.18317" x2="31.5139" y2="12.8237" gradientUnits="userSpaceOnUse">
<stop stop-color="#BBEC6C"/>
<stop offset="1" stop-color="#81B823"/>
</linearGradient>
<linearGradient id="paint22_linear_90_4219" x1="15.7581" y1="0.223002" x2="28.7303" y2="15.2299" gradientUnits="userSpaceOnUse">
<stop stop-color="#BBEC6C"/>
<stop offset="1" stop-color="#81B823"/>
</linearGradient>
<linearGradient id="paint23_linear_90_4219" x1="21.9904" y1="7.0413" x2="21.9904" y2="3.54358" gradientUnits="userSpaceOnUse">
<stop stop-color="#78A91F" stop-opacity="0"/>
<stop offset="1" stop-color="#78A91F"/>
</linearGradient>
<linearGradient id="paint24_linear_90_4219" x1="26.0488" y1="11.3301" x2="27.8561" y2="13.1534" gradientUnits="userSpaceOnUse">
<stop stop-color="#78A91F" stop-opacity="0"/>
<stop offset="1" stop-color="#78A91F"/>
</linearGradient>
<linearGradient id="paint25_linear_90_4219" x1="17.9319" y1="11.3301" x2="16.1245" y2="13.1534" gradientUnits="userSpaceOnUse">
<stop stop-color="#78A91F" stop-opacity="0"/>
<stop offset="1" stop-color="#78A91F"/>
</linearGradient>
<linearGradient id="paint26_linear_90_4219" x1="31.2497" y1="18.8059" x2="9.53828" y2="-3.097" gradientUnits="userSpaceOnUse">
<stop stop-color="#FBC56D"/>
<stop offset="1" stop-color="#C5715A"/>
</linearGradient>
<linearGradient id="paint27_linear_90_4219" x1="21.9902" y1="8.64697" x2="21.9902" y2="23.4746" gradientUnits="userSpaceOnUse">
<stop stop-color="#FBC56D"/>
<stop offset="1" stop-color="#C5715A"/>
</linearGradient>
<linearGradient id="paint28_linear_90_4219" x1="21.9903" y1="17.2588" x2="21.9903" y2="22.1341" gradientUnits="userSpaceOnUse">
<stop stop-color="#8C3D27" stop-opacity="0"/>
<stop offset="1" stop-color="#8C3D27"/>
</linearGradient>
<linearGradient id="paint29_linear_90_4219" x1="27.0392" y1="14.4986" x2="24.075" y2="17.5422" gradientUnits="userSpaceOnUse">
<stop stop-color="#8C3D27" stop-opacity="0"/>
<stop offset="1" stop-color="#8C3D27"/>
</linearGradient>
<linearGradient id="paint30_linear_90_4219" x1="19.6936" y1="17.8414" x2="25.3084" y2="23.5057" gradientUnits="userSpaceOnUse">
<stop stop-color="#FBC56D"/>
<stop offset="1" stop-color="#C5715A"/>
</linearGradient>
<linearGradient id="paint31_linear_90_4219" x1="23.6192" y1="21.7323" x2="20.8397" y2="18.9284" gradientUnits="userSpaceOnUse">
<stop stop-color="#FBC56D"/>
<stop offset="1" stop-color="#C5715A"/>
</linearGradient>
<linearGradient id="paint32_linear_90_4219" x1="21.9902" y1="1.19996" x2="21.9902" y2="3.40634" gradientUnits="userSpaceOnUse">
<stop stop-color="#FBC56D"/>
<stop offset="1" stop-color="#C5715A"/>
</linearGradient>
<clipPath id="clip0_90_4219">
<rect width="44" height="54" fill="white"/>
</clipPath>
</defs>
</svg>
