<svg width="43" height="53" viewBox="0 0 43 53" fill="none" xmlns="http://www.w3.org/2000/svg">
<g clip-path="url(#clip0_90_4139)">
<path d="M7.97102 39.1391C10.4877 40.2165 12.4791 41.9543 13.6995 43.924C13.9551 44.3365 13.5696 45.3155 13.1099 45.4218C10.9145 45.9291 8.32683 45.7066 5.8101 44.6291C3.29337 43.5516 1.30205 41.8139 0.0816453 39.8441C-0.173933 39.4317 0.211478 38.4524 0.671221 38.3462C2.86651 37.8391 5.45429 38.0617 7.97102 39.1391Z" fill="url(#paint0_linear_90_4139)"/>
<path d="M7.97102 39.1391C10.4877 40.2165 12.4791 41.9543 13.6995 43.924C13.9551 44.3365 13.5696 45.3155 13.1099 45.4218C10.9145 45.9291 8.32683 45.7066 5.8101 44.6291C3.29337 43.5516 1.30205 41.8139 0.0816453 39.8441C-0.173933 39.4317 0.211478 38.4524 0.671221 38.3462C2.86651 37.8391 5.45429 38.0617 7.97102 39.1391Z" fill="url(#paint1_linear_90_4139)"/>
<path d="M9.25095 35.4162C11.7156 37.4535 13.394 40.0489 14.145 42.6443C14.3023 43.1879 13.5736 44.1468 13.0303 44.1112C10.4359 43.9415 7.62979 42.8301 5.16507 40.7928C2.70036 38.7555 1.022 36.1601 0.271013 33.5646C0.113781 33.021 0.842455 32.0622 1.38579 32.0976C3.98015 32.2674 6.78623 33.3788 9.25095 35.4162Z" fill="url(#paint2_linear_90_4139)"/>
<path d="M9.25095 35.4162C11.7156 37.4535 13.394 40.0489 14.145 42.6443C14.3023 43.1879 13.5736 44.1468 13.0303 44.1112C10.4359 43.9415 7.62979 42.8301 5.16507 40.7928C2.70036 38.7555 1.022 36.1601 0.271013 33.5646C0.113781 33.021 0.842455 32.0622 1.38579 32.0976C3.98015 32.2674 6.78623 33.3788 9.25095 35.4162Z" fill="url(#paint3_linear_90_4139)"/>
<path d="M11.7393 29.6806C13.899 33.1379 14.9068 36.9332 14.8083 40.3421C14.7876 41.0561 13.551 41.8963 12.9167 41.6276C9.88691 40.3441 6.96536 37.8491 4.80574 34.3918C2.64611 30.9345 1.63835 27.1392 1.73679 23.7302C1.75742 23.0163 2.99406 22.1761 3.62848 22.4449C6.65816 23.7284 9.57974 26.2234 11.7393 29.6806Z" fill="url(#paint4_linear_90_4139)"/>
<path d="M2.10498 27.7389C2.56891 29.9718 3.46508 32.2475 4.80545 34.3932C6.96507 37.8506 9.88655 40.3455 12.9163 41.629C13.5508 41.8978 14.7874 41.0576 14.808 40.3437C14.9065 36.9347 13.8987 33.1394 11.7391 29.6821C10.4673 27.6463 8.93138 25.9445 7.26479 24.627L2.10498 27.7389Z" fill="url(#paint5_linear_90_4139)"/>
<path d="M34.6099 39.1391C32.0931 40.2165 30.1019 41.9543 28.8814 43.9241C28.6259 44.3364 29.0113 45.3156 29.471 45.4219C31.6665 45.9291 34.2541 45.7066 36.7709 44.6291C39.2875 43.5515 41.2789 41.8138 42.4992 39.8442C42.7549 39.4317 42.3695 38.4525 41.9098 38.3463C39.7144 37.839 37.1267 38.0616 34.6099 39.1391Z" fill="url(#paint6_linear_90_4139)"/>
<path d="M34.6099 39.1391C32.0931 40.2165 30.1019 41.9543 28.8814 43.9241C28.6259 44.3364 29.0113 45.3156 29.471 45.4219C31.6665 45.9291 34.2541 45.7066 36.7709 44.6291C39.2875 43.5515 41.2789 41.8138 42.4992 39.8442C42.7549 39.4317 42.3695 38.4525 41.9098 38.3463C39.7144 37.839 37.1267 38.0616 34.6099 39.1391Z" fill="url(#paint7_linear_90_4139)"/>
<path d="M33.3299 35.4161C30.8651 37.4534 29.1868 40.0488 28.4358 42.6442C28.2786 43.1878 29.0072 44.1467 29.5506 44.1111C32.145 43.9414 34.951 42.83 37.4158 40.7927C39.8805 38.7554 41.5588 36.16 42.3099 33.5645C42.467 33.021 41.7383 32.0621 41.195 32.0976C38.6007 32.2674 35.7946 33.3787 33.3299 35.4161Z" fill="url(#paint8_linear_90_4139)"/>
<path d="M33.3299 35.4161C30.8651 37.4534 29.1868 40.0488 28.4358 42.6442C28.2786 43.1878 29.0072 44.1467 29.5506 44.1111C32.145 43.9414 34.951 42.83 37.4158 40.7927C39.8805 38.7554 41.5588 36.16 42.3099 33.5645C42.467 33.021 41.7383 32.0621 41.195 32.0976C38.6007 32.2674 35.7946 33.3787 33.3299 35.4161Z" fill="url(#paint9_linear_90_4139)"/>
<path d="M30.8419 29.6806C28.6822 33.1379 27.6744 36.9332 27.7729 40.3421C27.7936 41.0561 29.0302 41.8963 29.6645 41.6276C32.6943 40.3441 35.6158 37.8491 37.7754 34.3918C39.9351 30.9345 40.9429 27.1392 40.8444 23.7302C40.8237 23.0163 39.5871 22.1761 38.9527 22.4449C35.923 23.7284 33.0014 26.2234 30.8419 29.6806Z" fill="url(#paint10_linear_90_4139)"/>
<path d="M40.476 27.739C40.0121 29.9719 39.1159 32.2475 37.7755 34.3933C35.6159 37.8506 32.6945 40.3455 29.6646 41.629C29.0301 41.8979 27.7936 41.0576 27.7729 40.3437C27.6744 36.9348 28.6822 33.1394 30.842 29.6821C32.1136 27.6463 33.6496 25.9446 35.3162 24.627L40.476 27.739Z" fill="url(#paint11_linear_90_4139)"/>
<path d="M21.2908 53.0003C30.0421 53.0003 37.1363 45.6015 37.1363 36.4745C37.1363 27.3476 30.0421 19.9487 21.2908 19.9487C12.5396 19.9487 5.44531 27.3476 5.44531 36.4745C5.44531 45.6015 12.5396 53.0003 21.2908 53.0003Z" fill="url(#paint12_linear_90_4139)"/>
<path d="M21.2904 49.6433C28.2657 49.6433 33.9204 43.7459 33.9204 36.4711C33.9204 29.1963 28.2657 23.2988 21.2904 23.2988C14.315 23.2988 8.6604 29.1963 8.6604 36.4711C8.6604 43.7459 14.315 49.6433 21.2904 49.6433Z" fill="url(#paint13_linear_90_4139)"/>
<path d="M21.2904 47.7795C27.2788 47.7795 32.1334 42.7166 32.1334 36.4711C32.1334 30.2256 27.2788 25.1626 21.2904 25.1626C15.302 25.1626 10.4475 30.2256 10.4475 36.4711C10.4475 42.7166 15.302 47.7795 21.2904 47.7795Z" fill="url(#paint14_linear_90_4139)"/>
<path d="M5.44531 36.474C5.44531 45.6011 12.5396 52.9999 21.2908 52.9999C30.0421 52.9999 37.1363 45.6011 37.1363 36.474C37.1363 36.4099 37.1347 36.3462 37.134 36.2822H5.4476C5.44691 36.3462 5.44531 36.4099 5.44531 36.474Z" fill="url(#paint15_linear_90_4139)"/>
<path d="M25.7347 52.3389C30.7277 50.8202 34.7007 46.8084 36.3322 41.6818L28.6146 33.6329L26.8748 33.722L22.1792 28.8247L16.4563 42.6621L25.7347 52.3389Z" fill="url(#paint16_linear_90_4139)"/>
<path d="M27.7882 32.8826L24.6806 32.0996C24.3916 32.0267 24.1389 31.8439 23.9723 31.587L22.181 28.8254C21.9642 28.4914 21.6323 28.3121 21.2908 28.2832C20.9491 28.3121 20.6171 28.4914 20.4006 28.8254L18.6092 31.587C18.4426 31.8439 18.19 32.0267 17.9008 32.0996L14.7934 32.8826C13.9504 33.095 13.5991 34.1443 14.132 34.8578L16.0969 37.488C16.2796 37.7327 16.3682 38.0397 16.3454 38.3489L16.0991 41.6732C16.0324 42.5749 16.8806 43.2477 17.696 42.9394L20.7017 41.8034C20.8915 41.7316 21.0941 41.7131 21.2908 41.7449C21.4874 41.7132 21.6899 41.7317 21.8798 41.8034L24.8855 42.9394C25.7007 43.2476 26.5491 42.5749 26.4823 41.6732L26.2361 38.3489C26.2132 38.0397 26.3018 37.7327 26.4846 37.488L28.4494 34.8578C28.9823 34.1443 28.6311 33.095 27.7882 32.8826Z" fill="url(#paint17_linear_90_4139)"/>
<path d="M21.8795 41.8034L24.8852 42.9394C25.7005 43.2475 26.5488 42.5749 26.4821 41.6732L26.2358 38.3489C26.213 38.0397 26.3016 37.7327 26.4843 37.488L28.4491 34.8578C28.9822 34.1444 28.6308 33.095 27.7879 32.8826L24.6804 32.0996C24.3913 32.0267 24.1387 31.8439 23.9721 31.587L22.1807 28.8254C21.964 28.4914 21.6321 28.3121 21.2905 28.2832V41.7449C21.4872 41.7131 21.6897 41.7316 21.8795 41.8034Z" fill="url(#paint18_linear_90_4139)"/>
<path d="M27.7879 32.8828L24.6803 32.0997C24.5742 32.073 24.4732 32.0311 24.3794 31.9766L16.4578 42.6629C16.7685 42.9761 17.2373 43.1129 17.6957 42.9397L20.7014 41.8037C20.8913 41.7318 21.0938 41.7134 21.2905 41.7452C21.4871 41.7135 21.6896 41.7319 21.8795 41.8037L24.8852 42.9397C25.7004 43.2478 26.5488 42.5751 26.482 41.6734L26.2359 38.3492C26.2129 38.0399 26.3015 37.733 26.4843 37.4882L28.4492 34.858C28.982 34.1444 28.6308 33.0952 27.7879 32.8828Z" fill="url(#paint19_linear_90_4139)"/>
<path d="M14.7934 32.8828L17.9008 32.0997C18.0069 32.073 18.108 32.0311 18.2018 31.9766L26.1234 42.6629C25.8126 42.9761 25.3438 43.1129 24.8855 42.9397L21.8798 41.8037C21.6899 41.7318 21.4873 41.7134 21.2908 41.7452C21.094 41.7135 20.8915 41.7319 20.7017 41.8037L17.696 42.9397C16.8807 43.2478 16.0324 42.5751 16.0991 41.6734L16.3454 38.3492C16.3682 38.0399 16.2796 37.733 16.0969 37.4882L14.132 34.858C13.5991 34.1444 13.9504 33.0952 14.7934 32.8828Z" fill="url(#paint20_linear_90_4139)"/>
<path d="M13.9662 33.6333C13.8184 34.0219 13.8539 34.4851 14.132 34.8574L16.0968 37.4876C16.2796 37.7323 16.3682 38.0393 16.3454 38.3486L16.0991 41.6729C16.0323 42.5745 16.8806 43.2473 17.6959 42.9391L20.7016 41.803C20.8915 41.7313 21.0941 41.7127 21.2907 41.7445C21.4874 41.7128 21.6899 41.7314 21.8797 41.803L24.8854 42.9391C25.7007 43.2472 26.5491 42.5745 26.4823 41.6729L26.236 38.3486C26.2233 38.177 26.2461 38.0065 26.2992 37.8466L13.9662 33.6333Z" fill="url(#paint21_linear_90_4139)"/>
<path d="M28.6163 33.6333C28.764 34.0219 28.7286 34.4851 28.4504 34.8574L26.4856 37.4876C26.3029 37.7323 26.2142 38.0393 26.2371 38.3486L26.4834 41.6729C26.5501 42.5745 25.7017 43.2473 24.8865 42.9391L21.8808 41.803C21.6909 41.7313 21.4883 41.7127 21.2917 41.7445C21.0951 41.7128 20.8926 41.7314 20.7027 41.803L17.697 42.9391C16.8818 43.2472 16.0334 42.5745 16.1001 41.6729L16.3464 38.3486C16.3591 38.177 16.3363 38.0065 16.2833 37.8466L28.6163 33.6333Z" fill="url(#paint22_linear_90_4139)"/>
<path d="M21.2906 19.9487C21.2249 19.9487 21.1596 19.9505 21.0941 19.9513L18.6487 22.5017L36.5004 41.1199C36.9135 39.6461 37.1361 38.0875 37.1361 36.4744C37.1361 27.3475 30.0419 19.9487 21.2906 19.9487Z" fill="url(#paint23_linear_90_4139)"/>
<path d="M11.7251 0.344727V9.07391L21.2905 19.0501L30.8561 9.07391V0.344727H11.7251Z" fill="url(#paint24_linear_90_4139)"/>
<path d="M11.7251 0.344238V3.06089L21.2586 13.0037C21.2763 13.0221 21.3049 13.0221 21.3226 13.0037L30.8561 3.06089V0.344238H11.7251Z" fill="url(#paint25_linear_90_4139)"/>
<path d="M11.7251 0.344238V3.06089L21.2586 13.0037C21.2763 13.0221 21.3049 13.0221 21.3226 13.0037L30.8561 3.06089V0.344238H11.7251Z" fill="url(#paint26_linear_90_4139)"/>
<path d="M21.2905 14.5798C20.8962 14.5798 20.5019 14.4233 20.2018 14.1102L11.7251 5.26953V9.07774L21.2905 19.054L30.8561 9.07774V5.26953L22.3793 14.1102C22.0792 14.4232 21.685 14.5798 21.2905 14.5798Z" fill="url(#paint27_linear_90_4139)"/>
<path d="M21.2905 14.5798C20.8962 14.5798 20.5019 14.4233 20.2018 14.1102L11.7251 5.26953V9.07774L21.2905 19.054L30.8561 9.07774V5.26953L22.3793 14.1102C22.0792 14.4232 21.685 14.5798 21.2905 14.5798Z" fill="url(#paint28_linear_90_4139)"/>
<path d="M21.2905 14.5798C21.685 14.5798 22.0792 14.4233 22.3793 14.1102L30.8561 5.26953V9.07774L21.2905 19.054L11.7251 9.07774V5.26953L20.2018 14.1102C20.5019 14.4232 20.8963 14.5798 21.2905 14.5798Z" fill="url(#paint29_linear_90_4139)"/>
<path d="M20.2415 16.7853L12.1014 8.29582C11.491 7.65921 10.5013 7.65921 9.89092 8.29582C9.2805 8.93243 9.2805 9.96466 9.89092 10.6013L21.2904 22.4904L32.69 10.6014C33.3004 9.96476 33.3004 8.93253 32.69 8.29592C32.0797 7.65932 31.0899 7.65932 30.4795 8.29592L22.3394 16.7854C21.76 17.3896 20.8208 17.3896 20.2415 16.7853Z" fill="url(#paint30_linear_90_4139)"/>
<path d="M9.89088 8.31514L20.0902 18.9524C20.7531 19.6437 21.828 19.6437 22.4909 18.9524L32.6901 8.31514C32.6931 8.31202 32.6954 8.3086 32.6985 8.30548C32.6955 8.30236 32.6931 8.29893 32.6901 8.29582C32.0797 7.65921 31.09 7.65921 30.4796 8.29582L22.3395 16.7853C21.7601 17.3895 20.8209 17.3895 20.2416 16.7853L12.1015 8.29582C11.4911 7.65921 10.5014 7.65921 9.89097 8.29582C9.88794 8.29893 9.8856 8.30236 9.88257 8.30548C9.8855 8.3086 9.88785 8.31202 9.89088 8.31514Z" fill="url(#paint31_linear_90_4139)"/>
<path d="M21.2906 22.4921L29.3376 14.0996H24.9164L22.3395 16.7871C21.7602 17.3913 20.8209 17.3913 20.2416 16.7871L17.6648 14.0996H13.2437L21.2906 22.4921Z" fill="url(#paint32_linear_90_4139)"/>
<path d="M20.2942 21.453L21.2905 22.4921L31.4964 11.8481H27.0752L22.3396 16.787C21.7771 17.3737 20.8764 17.389 20.2942 16.8367V21.453Z" fill="url(#paint33_linear_90_4139)"/>
<path d="M21.2908 23.6397C23.3543 23.6397 25.0271 21.8951 25.0271 19.743C25.0271 17.5909 23.3543 15.8462 21.2908 15.8462C19.2272 15.8462 17.5544 17.5909 17.5544 19.743C17.5544 21.8951 19.2272 23.6397 21.2908 23.6397Z" fill="url(#paint34_linear_90_4139)"/>
<path d="M21.2908 21.9788C22.4739 21.9788 23.4328 20.9786 23.4328 19.7448C23.4328 18.5109 22.4739 17.5107 21.2908 17.5107C20.1078 17.5107 19.1487 18.5109 19.1487 19.7448C19.1487 20.9786 20.1078 21.9788 21.2908 21.9788Z" fill="url(#paint35_linear_90_4139)"/>
<path d="M32.301 3.8796H10.28C9.64723 3.8796 9.13428 3.34463 9.13428 2.68475V1.19486C9.13428 0.534975 9.64723 0 10.28 0H32.3011C32.9338 0 33.4466 0.534975 33.4466 1.19486V2.68485C33.4466 3.34474 32.9338 3.8796 32.301 3.8796Z" fill="url(#paint36_linear_90_4139)"/>
</g>
<defs>
<linearGradient id="paint0_linear_90_4139" x1="5.07507" y1="36.9331" x2="7.01336" y2="41.7748" gradientUnits="userSpaceOnUse">
<stop stop-color="#E6E6E6"/>
<stop offset="1" stop-color="#999999"/>
</linearGradient>
<linearGradient id="paint1_linear_90_4139" x1="4.14161" y1="39.4913" x2="8.21662" y2="42.7385" gradientUnits="userSpaceOnUse">
<stop stop-color="#766E6E" stop-opacity="0"/>
<stop offset="0.2806" stop-color="#716B6B" stop-opacity="0.281"/>
<stop offset="0.5705" stop-color="#656060" stop-opacity="0.571"/>
<stop offset="0.8636" stop-color="#514F4F" stop-opacity="0.864"/>
<stop offset="1" stop-color="#444444"/>
</linearGradient>
<linearGradient id="paint2_linear_90_4139" x1="3.0445" y1="32.6206" x2="7.01703" y2="37.4212" gradientUnits="userSpaceOnUse">
<stop stop-color="#E6E6E6"/>
<stop offset="1" stop-color="#999999"/>
</linearGradient>
<linearGradient id="paint3_linear_90_4139" x1="3.97359" y1="37.2546" x2="7.5789" y2="38.1184" gradientUnits="userSpaceOnUse">
<stop stop-color="#766E6E" stop-opacity="0"/>
<stop offset="0.2806" stop-color="#716B6B" stop-opacity="0.281"/>
<stop offset="0.5705" stop-color="#656060" stop-opacity="0.571"/>
<stop offset="0.8636" stop-color="#514F4F" stop-opacity="0.864"/>
<stop offset="1" stop-color="#444444"/>
</linearGradient>
<linearGradient id="paint4_linear_90_4139" x1="8.01073" y1="26.34" x2="8.43665" y2="34.7532" gradientUnits="userSpaceOnUse">
<stop stop-color="#E6E6E6"/>
<stop offset="1" stop-color="#999999"/>
</linearGradient>
<linearGradient id="paint5_linear_90_4139" x1="7.4084" y1="30.6964" x2="9.89198" y2="34.2148" gradientUnits="userSpaceOnUse">
<stop stop-color="#766E6E" stop-opacity="0"/>
<stop offset="0.2806" stop-color="#716B6B" stop-opacity="0.281"/>
<stop offset="0.5705" stop-color="#656060" stop-opacity="0.571"/>
<stop offset="0.8636" stop-color="#514F4F" stop-opacity="0.864"/>
<stop offset="1" stop-color="#444444"/>
</linearGradient>
<linearGradient id="paint6_linear_90_4139" x1="37.5104" y1="36.9293" x2="35.572" y2="41.7711" gradientUnits="userSpaceOnUse">
<stop stop-color="#E6E6E6"/>
<stop offset="1" stop-color="#999999"/>
</linearGradient>
<linearGradient id="paint7_linear_90_4139" x1="38.4439" y1="39.4874" x2="34.3689" y2="42.7346" gradientUnits="userSpaceOnUse">
<stop stop-color="#766E6E" stop-opacity="0"/>
<stop offset="0.2806" stop-color="#716B6B" stop-opacity="0.281"/>
<stop offset="0.5705" stop-color="#656060" stop-opacity="0.571"/>
<stop offset="0.8636" stop-color="#514F4F" stop-opacity="0.864"/>
<stop offset="1" stop-color="#444444"/>
</linearGradient>
<linearGradient id="paint8_linear_90_4139" x1="39.5409" y1="32.6167" x2="35.5683" y2="37.4174" gradientUnits="userSpaceOnUse">
<stop stop-color="#E6E6E6"/>
<stop offset="1" stop-color="#999999"/>
</linearGradient>
<linearGradient id="paint9_linear_90_4139" x1="38.6117" y1="37.2508" x2="35.0064" y2="38.1146" gradientUnits="userSpaceOnUse">
<stop stop-color="#766E6E" stop-opacity="0"/>
<stop offset="0.2806" stop-color="#716B6B" stop-opacity="0.281"/>
<stop offset="0.5705" stop-color="#656060" stop-opacity="0.571"/>
<stop offset="0.8636" stop-color="#514F4F" stop-opacity="0.864"/>
<stop offset="1" stop-color="#444444"/>
</linearGradient>
<linearGradient id="paint10_linear_90_4139" x1="34.5749" y1="26.3361" x2="34.149" y2="34.7495" gradientUnits="userSpaceOnUse">
<stop stop-color="#E6E6E6"/>
<stop offset="1" stop-color="#999999"/>
</linearGradient>
<linearGradient id="paint11_linear_90_4139" x1="35.177" y1="30.6926" x2="32.6936" y2="34.2111" gradientUnits="userSpaceOnUse">
<stop stop-color="#766E6E" stop-opacity="0"/>
<stop offset="0.2806" stop-color="#716B6B" stop-opacity="0.281"/>
<stop offset="0.5705" stop-color="#656060" stop-opacity="0.571"/>
<stop offset="0.8636" stop-color="#514F4F" stop-opacity="0.864"/>
<stop offset="1" stop-color="#444444"/>
</linearGradient>
<linearGradient id="paint12_linear_90_4139" x1="11.5214" y1="26.2857" x2="28.9349" y2="42.9824" gradientUnits="userSpaceOnUse">
<stop stop-color="#E6E6E6"/>
<stop offset="1" stop-color="#999999"/>
</linearGradient>
<linearGradient id="paint13_linear_90_4139" x1="29.4935" y1="45.0263" x2="12.1487" y2="28.3956" gradientUnits="userSpaceOnUse">
<stop stop-color="#E6E6E6"/>
<stop offset="1" stop-color="#999999"/>
</linearGradient>
<linearGradient id="paint14_linear_90_4139" x1="13.408" y1="28.2502" x2="26.928" y2="41.2137" gradientUnits="userSpaceOnUse">
<stop stop-color="#E6E6E6"/>
<stop offset="1" stop-color="#999999"/>
</linearGradient>
<linearGradient id="paint15_linear_90_4139" x1="21.2908" y1="41.3092" x2="21.2908" y2="52.1562" gradientUnits="userSpaceOnUse">
<stop stop-color="#766E6E" stop-opacity="0"/>
<stop offset="0.2806" stop-color="#716B6B" stop-opacity="0.281"/>
<stop offset="0.5705" stop-color="#656060" stop-opacity="0.571"/>
<stop offset="0.8636" stop-color="#514F4F" stop-opacity="0.864"/>
<stop offset="1" stop-color="#444444"/>
</linearGradient>
<linearGradient id="paint16_linear_90_4139" x1="30.7808" y1="45.0615" x2="17.388" y2="36.9786" gradientUnits="userSpaceOnUse">
<stop stop-color="#766E6E" stop-opacity="0"/>
<stop offset="0.2806" stop-color="#716B6B" stop-opacity="0.281"/>
<stop offset="0.5705" stop-color="#656060" stop-opacity="0.571"/>
<stop offset="0.8636" stop-color="#514F4F" stop-opacity="0.864"/>
<stop offset="1" stop-color="#444444"/>
</linearGradient>
<linearGradient id="paint17_linear_90_4139" x1="17.99" y1="33.3324" x2="24.1923" y2="39.2792" gradientUnits="userSpaceOnUse">
<stop stop-color="#F9F5F3"/>
<stop offset="1" stop-color="#D8E8F0"/>
</linearGradient>
<linearGradient id="paint18_linear_90_4139" x1="24.857" y1="35.0249" x2="16.5323" y2="38.3246" gradientUnits="userSpaceOnUse">
<stop stop-color="#678D98" stop-opacity="0"/>
<stop offset="0.9957" stop-color="#678D98" stop-opacity="0.996"/>
<stop offset="1" stop-color="#678D98"/>
</linearGradient>
<linearGradient id="paint19_linear_90_4139" x1="22.7089" y1="38.0698" x2="18.1479" y2="36.1955" gradientUnits="userSpaceOnUse">
<stop stop-color="#678D98" stop-opacity="0"/>
<stop offset="0.9957" stop-color="#678D98" stop-opacity="0.996"/>
<stop offset="1" stop-color="#678D98"/>
</linearGradient>
<linearGradient id="paint20_linear_90_4139" x1="19.8723" y1="38.0698" x2="24.4333" y2="36.1955" gradientUnits="userSpaceOnUse">
<stop stop-color="#678D98" stop-opacity="0"/>
<stop offset="0.9957" stop-color="#678D98" stop-opacity="0.996"/>
<stop offset="1" stop-color="#678D98"/>
</linearGradient>
<linearGradient id="paint21_linear_90_4139" x1="19.9723" y1="38.3049" x2="23.0465" y2="33.5677" gradientUnits="userSpaceOnUse">
<stop stop-color="#678D98" stop-opacity="0"/>
<stop offset="0.9957" stop-color="#678D98" stop-opacity="0.996"/>
<stop offset="1" stop-color="#678D98"/>
</linearGradient>
<linearGradient id="paint22_linear_90_4139" x1="22.3869" y1="37.692" x2="22.1245" y2="32.9479" gradientUnits="userSpaceOnUse">
<stop stop-color="#678D98" stop-opacity="0"/>
<stop offset="0.9957" stop-color="#678D98" stop-opacity="0.996"/>
<stop offset="1" stop-color="#678D98"/>
</linearGradient>
<linearGradient id="paint23_linear_90_4139" x1="29.099" y1="29.493" x2="22.5921" y2="18.5749" gradientUnits="userSpaceOnUse">
<stop stop-color="#766E6E" stop-opacity="0"/>
<stop offset="0.2806" stop-color="#716B6B" stop-opacity="0.281"/>
<stop offset="0.5705" stop-color="#656060" stop-opacity="0.571"/>
<stop offset="0.8636" stop-color="#514F4F" stop-opacity="0.864"/>
<stop offset="1" stop-color="#444444"/>
</linearGradient>
<linearGradient id="paint24_linear_90_4139" x1="21.9993" y1="5.88807" x2="26.1769" y2="12.2769" gradientUnits="userSpaceOnUse">
<stop stop-color="#F9F5F3"/>
<stop offset="1" stop-color="#D8E8F0"/>
</linearGradient>
<linearGradient id="paint25_linear_90_4139" x1="18.0735" y1="-2.14494" x2="30.8828" y2="11.9393" gradientUnits="userSpaceOnUse">
<stop stop-color="#B3DAFE"/>
<stop offset="1" stop-color="#0182FC"/>
</linearGradient>
<linearGradient id="paint26_linear_90_4139" x1="21.2905" y1="6.90848" x2="21.2905" y2="3.47563" gradientUnits="userSpaceOnUse">
<stop stop-color="#0182FC" stop-opacity="0"/>
<stop offset="0.1261" stop-color="#017FF3" stop-opacity="0.126"/>
<stop offset="0.3306" stop-color="#0176DB" stop-opacity="0.331"/>
<stop offset="0.5881" stop-color="#0268B4" stop-opacity="0.588"/>
<stop offset="0.8857" stop-color="#02547E" stop-opacity="0.886"/>
<stop offset="1" stop-color="#024C67"/>
</linearGradient>
<linearGradient id="paint27_linear_90_4139" x1="15.477" y1="0.220735" x2="28.2863" y2="14.305" gradientUnits="userSpaceOnUse">
<stop stop-color="#B3DAFE"/>
<stop offset="1" stop-color="#0182FC"/>
</linearGradient>
<linearGradient id="paint28_linear_90_4139" x1="25.0764" y1="11.1219" x2="26.8488" y2="12.8213" gradientUnits="userSpaceOnUse">
<stop stop-color="#0182FC" stop-opacity="0"/>
<stop offset="0.1261" stop-color="#017FF3" stop-opacity="0.126"/>
<stop offset="0.3306" stop-color="#0176DB" stop-opacity="0.331"/>
<stop offset="0.5881" stop-color="#0268B4" stop-opacity="0.588"/>
<stop offset="0.8857" stop-color="#02547E" stop-opacity="0.886"/>
<stop offset="1" stop-color="#024C67"/>
</linearGradient>
<linearGradient id="paint29_linear_90_4139" x1="17.5047" y1="11.1219" x2="15.7324" y2="12.8213" gradientUnits="userSpaceOnUse">
<stop stop-color="#0182FC" stop-opacity="0"/>
<stop offset="0.1261" stop-color="#017FF3" stop-opacity="0.126"/>
<stop offset="0.3306" stop-color="#0176DB" stop-opacity="0.331"/>
<stop offset="0.5881" stop-color="#0268B4" stop-opacity="0.588"/>
<stop offset="0.8857" stop-color="#02547E" stop-opacity="0.886"/>
<stop offset="1" stop-color="#024C67"/>
</linearGradient>
<linearGradient id="paint30_linear_90_4139" x1="29.9279" y1="18.4569" x2="8.63711" y2="-1.95742" gradientUnits="userSpaceOnUse">
<stop stop-color="#E6E6E6"/>
<stop offset="1" stop-color="#999999"/>
</linearGradient>
<linearGradient id="paint31_linear_90_4139" x1="21.2905" y1="8.4864" x2="21.2905" y2="23.0391" gradientUnits="userSpaceOnUse">
<stop stop-color="#E6E6E6"/>
<stop offset="1" stop-color="#999999"/>
</linearGradient>
<linearGradient id="paint32_linear_90_4139" x1="21.2906" y1="16.9401" x2="21.2906" y2="21.7249" gradientUnits="userSpaceOnUse">
<stop stop-color="#766E6E" stop-opacity="0"/>
<stop offset="0.2806" stop-color="#716B6B" stop-opacity="0.281"/>
<stop offset="0.5705" stop-color="#656060" stop-opacity="0.571"/>
<stop offset="0.8636" stop-color="#514F4F" stop-opacity="0.864"/>
<stop offset="1" stop-color="#444444"/>
</linearGradient>
<linearGradient id="paint33_linear_90_4139" x1="26.0003" y1="14.2309" x2="23.091" y2="17.0703" gradientUnits="userSpaceOnUse">
<stop stop-color="#766E6E" stop-opacity="0"/>
<stop offset="0.2806" stop-color="#716B6B" stop-opacity="0.281"/>
<stop offset="0.5705" stop-color="#656060" stop-opacity="0.571"/>
<stop offset="0.8636" stop-color="#514F4F" stop-opacity="0.864"/>
<stop offset="1" stop-color="#444444"/>
</linearGradient>
<linearGradient id="paint34_linear_90_4139" x1="19.1485" y1="17.5088" x2="24.6545" y2="22.788" gradientUnits="userSpaceOnUse">
<stop stop-color="#F9F5F3"/>
<stop offset="1" stop-color="#D8E8F0"/>
</linearGradient>
<linearGradient id="paint35_linear_90_4139" x1="22.8103" y1="21.3295" x2="20.0848" y2="18.7161" gradientUnits="userSpaceOnUse">
<stop stop-color="#F9F5F3"/>
<stop offset="1" stop-color="#D8E8F0"/>
</linearGradient>
<linearGradient id="paint36_linear_90_4139" x1="21.2904" y1="1.17771" x2="21.2904" y2="3.34318" gradientUnits="userSpaceOnUse">
<stop stop-color="#E6E6E6"/>
<stop offset="1" stop-color="#999999"/>
</linearGradient>
<clipPath id="clip0_90_4139">
<rect width="43" height="53" fill="white"/>
</clipPath>
</defs>
</svg>
