<svg width="23" height="23" viewBox="0 0 23 23" fill="none" xmlns="http://www.w3.org/2000/svg">
<path d="M22.3554 1.17033C22.3025 0.877117 22.0729 0.647474 21.7797 0.594617C21.7061 0.581046 19.9489 0.268188 17.7375 0.268188C14.2179 0.268188 11.6672 1.0339 10.1572 2.54426L9.96538 2.73569C9.18431 3.51533 8.23288 4.4664 7.37002 5.48676C6.56502 5.45355 3.44645 5.4614 2.09609 7.4414C0.713237 9.46926 0.339309 11.8196 0.324309 11.9185C0.294666 12.11 0.344309 12.3053 0.461451 12.4596C0.578594 12.6139 0.753237 12.7139 0.94538 12.7368L5.45002 13.2743C5.74538 14.0785 6.14574 14.8143 6.59074 15.3928L5.49288 16.4903C5.21395 16.7693 5.21395 17.2214 5.49288 17.5003C5.63252 17.64 5.81502 17.7096 5.99788 17.7096C6.18074 17.7096 6.36324 17.64 6.50288 17.5003L7.60645 16.3968C8.21752 16.8585 8.96967 17.25 9.76609 17.5318L10.3107 22.1021C10.3336 22.2946 10.434 22.4693 10.5879 22.5864C10.7132 22.6814 10.8647 22.7318 11.02 22.7318C11.0565 22.7318 11.0925 22.7289 11.129 22.7235C11.2279 22.7082 13.5779 22.3339 15.6061 20.9514C17.7943 19.4593 17.5736 15.806 17.5515 15.5057C18.535 14.665 19.4507 13.7493 20.2057 12.9932L20.4057 12.7928C23.7975 9.40105 22.4157 1.50497 22.3554 1.17033ZM21.0254 1.92426C21.1304 2.69212 21.3 4.25426 21.2411 5.96462C20.4179 5.64462 19.1307 4.61712 17.9815 3.32462C17.39 2.65962 17.005 2.10997 16.7861 1.71962C17.1136 1.70426 17.4332 1.69676 17.7372 1.69676C19.1415 1.69676 20.3711 1.83426 21.0254 1.92426ZM1.89574 11.4114C2.09681 10.6357 2.51252 9.36676 3.27609 8.2464C3.87502 7.36819 5.19859 7.03962 6.25252 6.94176C5.62217 7.86819 5.15038 8.81212 5.00895 9.70855C4.90324 10.381 4.92967 11.0896 5.04966 11.7875L1.89574 11.4114ZM14.8011 19.771C13.6804 20.535 12.4115 20.9507 11.6361 21.1514L11.2507 17.9164C11.6297 17.9785 12.0047 18.0125 12.3657 18.0125C12.6704 18.0125 12.9668 17.99 13.2468 17.9453C14.1768 17.7978 15.1597 17.2903 16.1207 16.621C16.045 17.6975 15.7332 19.1357 14.8011 19.771ZM19.3954 11.7828L19.1943 11.9839C17.6104 13.5707 14.9593 16.2271 13.0225 16.5343C11.7036 16.7471 9.83931 16.2168 8.62895 15.3743L12.2554 11.7478C12.5343 11.4689 12.5343 11.0168 12.2554 10.7378C11.9765 10.4589 11.5243 10.4589 11.2454 10.7378L7.61217 14.371C6.80359 13.2357 6.18931 11.3996 6.42038 9.93033C6.72681 7.98712 9.38574 5.33247 10.9743 3.74676L11.1668 3.55426C12.3172 2.40426 14.2243 1.93497 16.0129 1.77176C16.3179 2.46319 16.9904 3.28533 17.4479 3.79926C18.5118 4.99605 20.045 6.36497 21.2007 6.70426C21.0568 8.61426 20.5861 10.5921 19.3954 11.7828Z" fill="white" stroke="white" stroke-width="0.008"/>
<path d="M10.8726 4.83349L10.7354 4.97064C9.44935 6.25456 7.50613 8.19456 7.24363 9.85921C7.21256 10.0542 7.34578 10.2371 7.54042 10.2678C7.55935 10.271 7.57792 10.2724 7.59649 10.2724C7.76899 10.2724 7.92113 10.1467 7.94863 9.97099C8.17542 8.53563 10.0936 6.62028 11.2401 5.47599L11.3776 5.33849C11.5172 5.19885 11.5172 4.97313 11.3776 4.83349C11.2379 4.69385 11.0118 4.69385 10.8726 4.83349Z" fill="white" stroke="white" stroke-width="0.008"/>
<path d="M7.74177 18.7947C6.8682 19.6682 4.79213 19.6382 3.62285 19.5061C3.49035 18.3364 3.4607 16.2604 4.33427 15.3868C4.6132 15.1082 4.6132 14.6557 4.33427 14.3768C4.05534 14.0979 3.6032 14.0979 3.32427 14.3768C1.59535 16.1054 2.21284 19.8439 2.28892 20.2643C2.34177 20.5575 2.57142 20.7872 2.86463 20.84C3.04785 20.8732 3.85927 21.0089 4.86035 21.0089C6.15892 21.0089 7.7757 20.7807 8.75177 19.8047C9.0307 19.5261 9.0307 19.0736 8.75177 18.7947C8.47285 18.5157 8.0207 18.5157 7.74177 18.7947Z" fill="white" stroke="white" stroke-width="0.008"/>
<path d="M15.2018 5.37317C13.8236 5.37317 12.7018 6.49495 12.7018 7.87317C12.7018 9.25138 13.8232 10.3732 15.2018 10.3732C16.5804 10.3732 17.7018 9.25138 17.7018 7.87317C17.7018 6.49495 16.5804 5.37317 15.2018 5.37317ZM15.2018 9.65888C14.2171 9.65888 13.4161 8.85781 13.4161 7.87317C13.4161 6.88853 14.2171 6.08745 15.2018 6.08745C16.1864 6.08745 16.9875 6.88853 16.9875 7.87317C16.9875 8.85781 16.1864 9.65888 15.2018 9.65888Z" fill="white" stroke="white" stroke-width="0.008"/>
</svg>
